<svg xmlns="http://www.w3.org/2000/svg" xmlns:xlink="http://www.w3.org/1999/xlink" width="500" zoomAndPan="magnify" viewBox="0 0 375 374.999991" height="500" preserveAspectRatio="xMidYMid meet" version="1.0"><defs><clipPath id="aa9bb02f13"><path d="M 171.703125 153.664062 L 175.960938 153.664062 L 175.960938 157.3125 L 171.703125 157.3125 Z M 171.703125 153.664062 " clip-rule="nonzero"/></clipPath><clipPath id="e7b6795fe1"><path d="M 175.949219 154.949219 C 174.074219 157.949219 172.273438 157.425781 171.898438 156.824219 C 171.523438 156.148438 171.824219 154.351562 172.425781 153.824219 C 173.023438 153.375 175.425781 154.050781 175.425781 154.050781 " clip-rule="nonzero"/></clipPath><clipPath id="e2d83a65a3"><path d="M 0.703125 0.664062 L 4.960938 0.664062 L 4.960938 4.3125 L 0.703125 4.3125 Z M 0.703125 0.664062 " clip-rule="nonzero"/></clipPath><clipPath id="83f43b3b92"><path d="M 4.949219 1.949219 C 3.074219 4.949219 1.273438 4.425781 0.898438 3.824219 C 0.523438 3.148438 0.824219 1.351562 1.425781 0.824219 C 2.023438 0.375 4.425781 1.050781 4.425781 1.050781 " clip-rule="nonzero"/></clipPath><clipPath id="339500d8d7"><rect x="0" width="5" y="0" height="5"/></clipPath></defs><path fill="#505050" d="M 375.589844 187.78125 C 375.589844 190.855469 375.515625 193.925781 375.363281 196.996094 C 375.210938 200.066406 374.988281 203.128906 374.683594 206.1875 C 374.382812 209.246094 374.007812 212.296875 373.558594 215.335938 C 373.105469 218.375 372.582031 221.402344 371.980469 224.417969 C 371.382812 227.433594 370.707031 230.429688 369.960938 233.410156 C 369.214844 236.390625 368.394531 239.355469 367.503906 242.292969 C 366.613281 245.234375 365.648438 248.152344 364.613281 251.046875 C 363.578125 253.941406 362.46875 256.808594 361.292969 259.644531 C 360.117188 262.484375 358.875 265.292969 357.558594 268.074219 C 356.246094 270.851562 354.863281 273.597656 353.414062 276.304688 C 351.964844 279.015625 350.453125 281.691406 348.871094 284.328125 C 347.292969 286.960938 345.648438 289.558594 343.941406 292.113281 C 342.234375 294.667969 340.464844 297.179688 338.632812 299.648438 C 336.800781 302.117188 334.914062 304.539062 332.960938 306.917969 C 331.011719 309.292969 329.003906 311.617188 326.941406 313.894531 C 324.878906 316.171875 322.757812 318.398438 320.585938 320.570312 C 318.414062 322.746094 316.1875 324.863281 313.910156 326.925781 C 311.632812 328.992188 309.304688 331 306.929688 332.949219 C 304.554688 334.898438 302.132812 336.789062 299.664062 338.617188 C 297.195312 340.449219 294.683594 342.21875 292.128906 343.925781 C 289.574219 345.632812 286.976562 347.277344 284.339844 348.859375 C 281.703125 350.4375 279.03125 351.953125 276.320312 353.402344 C 273.609375 354.851562 270.867188 356.230469 268.085938 357.546875 C 265.308594 358.859375 262.5 360.105469 259.660156 361.28125 C 256.820312 362.457031 253.953125 363.5625 251.0625 364.597656 C 248.167969 365.632812 245.25 366.597656 242.308594 367.488281 C 239.367188 368.382812 236.40625 369.199219 233.425781 369.949219 C 230.445312 370.695312 227.445312 371.367188 224.429688 371.96875 C 221.417969 372.566406 218.390625 373.09375 215.351562 373.542969 C 212.308594 373.992188 209.261719 374.371094 206.203125 374.671875 C 203.144531 374.972656 200.078125 375.199219 197.007812 375.347656 C 193.941406 375.5 190.867188 375.574219 187.792969 375.574219 C 184.722656 375.574219 181.648438 375.5 178.578125 375.347656 C 175.511719 375.199219 172.445312 374.972656 169.386719 374.671875 C 166.328125 374.371094 163.277344 373.992188 160.238281 373.542969 C 157.199219 373.09375 154.171875 372.566406 151.15625 371.96875 C 148.144531 371.367188 145.144531 370.695312 142.164062 369.949219 C 139.183594 369.199219 136.222656 368.382812 133.28125 367.488281 C 130.339844 366.597656 127.421875 365.632812 124.527344 364.597656 C 121.632812 363.5625 118.765625 362.457031 115.929688 361.28125 C 113.089844 360.105469 110.28125 358.859375 107.5 357.546875 C 104.722656 356.230469 101.980469 354.851562 99.269531 353.402344 C 96.558594 351.953125 93.882812 350.4375 91.25 348.859375 C 88.613281 347.277344 86.015625 345.632812 83.460938 343.925781 C 80.90625 342.21875 78.394531 340.449219 75.925781 338.617188 C 73.457031 336.789062 71.035156 334.898438 68.660156 332.949219 C 66.28125 331 63.957031 328.992188 61.679688 326.925781 C 59.402344 324.863281 57.175781 322.746094 55.003906 320.570312 C 52.832031 318.398438 50.710938 316.171875 48.648438 313.894531 C 46.582031 311.617188 44.578125 309.292969 42.628906 306.917969 C 40.675781 304.539062 38.785156 302.117188 36.957031 299.648438 C 35.125 297.179688 33.355469 294.667969 31.648438 292.113281 C 29.941406 289.558594 28.296875 286.960938 26.71875 284.328125 C 25.136719 281.691406 23.621094 279.015625 22.175781 276.304688 C 20.726562 273.597656 19.34375 270.851562 18.03125 268.074219 C 16.714844 265.292969 15.46875 262.484375 14.292969 259.644531 C 13.117188 256.808594 12.011719 253.941406 10.976562 251.046875 C 9.941406 248.152344 8.976562 245.234375 8.085938 242.292969 C 7.195312 239.355469 6.375 236.390625 5.628906 233.410156 C 4.878906 230.429688 4.207031 227.433594 3.609375 224.417969 C 3.007812 221.402344 2.484375 218.375 2.03125 215.335938 C 1.582031 212.296875 1.207031 209.246094 0.902344 206.1875 C 0.601562 203.128906 0.378906 200.066406 0.226562 196.996094 C 0.0742188 193.925781 0 190.855469 0 187.78125 C 0 184.707031 0.0742188 181.636719 0.226562 178.566406 C 0.375 175.496094 0.601562 172.433594 0.902344 169.375 C 1.207031 166.316406 1.582031 163.265625 2.03125 160.226562 C 2.484375 157.183594 3.007812 154.15625 3.609375 151.144531 C 4.207031 148.128906 4.878906 145.132812 5.628906 142.148438 C 6.375 139.167969 7.195312 136.207031 8.085938 133.265625 C 8.976562 130.324219 9.941406 127.40625 10.976562 124.515625 C 12.011719 121.621094 13.117188 118.753906 14.292969 115.914062 C 15.46875 113.074219 16.714844 110.265625 18.03125 107.488281 C 19.34375 104.710938 20.726562 101.964844 22.175781 99.253906 C 23.625 96.542969 25.136719 93.871094 26.71875 91.234375 C 28.296875 88.597656 29.941406 86.003906 31.648438 83.445312 C 33.355469 80.890625 35.125 78.378906 36.957031 75.910156 C 38.789062 73.441406 40.675781 71.019531 42.628906 68.644531 C 44.578125 66.269531 46.582031 63.941406 48.648438 61.664062 C 50.710938 59.386719 52.832031 57.164062 55.003906 54.988281 C 57.175781 52.816406 59.402344 50.699219 61.679688 48.632812 C 63.957031 46.570312 66.28125 44.5625 68.660156 42.613281 C 71.035156 40.664062 73.457031 38.773438 75.925781 36.941406 C 78.394531 35.113281 80.90625 33.34375 83.460938 31.632812 C 86.015625 29.925781 88.613281 28.285156 91.25 26.703125 C 93.882812 25.125 96.558594 23.609375 99.269531 22.160156 C 101.980469 20.710938 104.722656 19.328125 107.5 18.015625 C 110.28125 16.703125 113.089844 15.457031 115.929688 14.28125 C 118.769531 13.105469 121.632812 12 124.527344 10.964844 C 127.421875 9.929688 130.339844 8.964844 133.28125 8.070312 C 136.222656 7.179688 139.183594 6.359375 142.164062 5.613281 C 145.144531 4.867188 148.144531 4.195312 151.15625 3.59375 C 154.171875 2.996094 157.199219 2.46875 160.238281 2.019531 C 163.28125 1.566406 166.328125 1.191406 169.386719 0.890625 C 172.445312 0.589844 175.511719 0.363281 178.578125 0.210938 C 181.648438 0.0625 184.722656 -0.015625 187.792969 -0.015625 C 190.867188 -0.015625 193.941406 0.0625 197.007812 0.210938 C 200.078125 0.363281 203.144531 0.589844 206.203125 0.890625 C 209.261719 1.191406 212.308594 1.566406 215.351562 2.019531 C 218.390625 2.46875 221.417969 2.996094 224.429688 3.59375 C 227.445312 4.195312 230.445312 4.867188 233.425781 5.613281 C 236.40625 6.359375 239.367188 7.179688 242.308594 8.070312 C 245.25 8.964844 248.167969 9.929688 251.0625 10.964844 C 253.953125 12 256.820312 13.105469 259.660156 14.28125 C 262.5 15.457031 265.308594 16.703125 268.085938 18.015625 C 270.867188 19.332031 273.609375 20.710938 276.320312 22.160156 C 279.03125 23.609375 281.703125 25.125 284.339844 26.703125 C 286.976562 28.285156 289.574219 29.925781 292.128906 31.636719 C 294.683594 33.34375 297.195312 35.113281 299.664062 36.941406 C 302.132812 38.773438 304.554688 40.664062 306.929688 42.613281 C 309.304688 44.5625 311.632812 46.570312 313.910156 48.632812 C 316.1875 50.699219 318.414062 52.816406 320.585938 54.988281 C 322.757812 57.164062 324.878906 59.386719 326.941406 61.664062 C 329.003906 63.941406 331.011719 66.269531 332.960938 68.644531 C 334.914062 71.019531 336.800781 73.441406 338.632812 75.910156 C 340.464844 78.378906 342.234375 80.890625 343.941406 83.449219 C 345.648438 86.003906 347.292969 88.597656 348.871094 91.234375 C 350.453125 93.871094 351.964844 96.542969 353.414062 99.253906 C 354.863281 101.964844 356.246094 104.710938 357.558594 107.488281 C 358.875 110.265625 360.117188 113.074219 361.292969 115.914062 C 362.46875 118.753906 363.578125 121.621094 364.613281 124.515625 C 365.648438 127.40625 366.613281 130.324219 367.503906 133.265625 C 368.394531 136.207031 369.214844 139.167969 369.960938 142.148438 C 370.707031 145.132812 371.382812 148.128906 371.980469 151.144531 C 372.582031 154.15625 373.105469 157.183594 373.558594 160.226562 C 374.007812 163.265625 374.382812 166.316406 374.683594 169.375 C 374.988281 172.433594 375.210938 175.496094 375.363281 178.566406 C 375.515625 181.636719 375.589844 184.707031 375.589844 187.78125 Z M 375.589844 187.78125 " fill-opacity="1" fill-rule="nonzero"/><path fill="#faa500" d="M 240.546875 145.589844 C 240.546875 147.316406 240.460938 149.042969 240.292969 150.761719 C 240.125 152.480469 239.871094 154.1875 239.535156 155.882812 C 239.195312 157.574219 238.777344 159.25 238.277344 160.902344 C 237.773438 162.554688 237.191406 164.179688 236.53125 165.777344 C 235.871094 167.375 235.132812 168.933594 234.320312 170.457031 C 233.503906 171.980469 232.617188 173.460938 231.65625 174.898438 C 230.695312 176.335938 229.667969 177.71875 228.574219 179.054688 C 227.476562 180.390625 226.320312 181.667969 225.097656 182.890625 C 223.875 184.113281 222.597656 185.273438 221.261719 186.367188 C 219.925781 187.464844 218.539062 188.492188 217.101562 189.453125 C 215.667969 190.410156 214.1875 191.300781 212.664062 192.113281 C 211.136719 192.929688 209.578125 193.664062 207.980469 194.328125 C 206.386719 194.988281 204.761719 195.570312 203.109375 196.070312 C 201.453125 196.574219 199.78125 196.992188 198.085938 197.328125 C 196.390625 197.664062 194.683594 197.917969 192.964844 198.089844 C 191.246094 198.257812 189.523438 198.34375 187.792969 198.34375 C 186.066406 198.34375 184.34375 198.257812 182.625 198.089844 C 180.90625 197.917969 179.199219 197.664062 177.503906 197.328125 C 175.808594 196.992188 174.132812 196.574219 172.480469 196.070312 C 170.828125 195.570312 169.203125 194.988281 167.605469 194.328125 C 166.011719 193.664062 164.449219 192.929688 162.925781 192.113281 C 161.402344 191.300781 159.921875 190.410156 158.488281 189.453125 C 157.050781 188.492188 155.664062 187.464844 154.328125 186.367188 C 152.992188 185.273438 151.714844 184.113281 150.492188 182.890625 C 149.269531 181.667969 148.113281 180.390625 147.015625 179.054688 C 145.921875 177.71875 144.890625 176.335938 143.933594 174.898438 C 142.972656 173.460938 142.085938 171.980469 141.269531 170.457031 C 140.457031 168.933594 139.71875 167.375 139.058594 165.777344 C 138.394531 164.179688 137.816406 162.554688 137.3125 160.902344 C 136.8125 159.25 136.394531 157.574219 136.054688 155.882812 C 135.71875 154.1875 135.464844 152.480469 135.296875 150.761719 C 135.125 149.042969 135.042969 147.316406 135.042969 145.589844 C 135.042969 143.863281 135.125 142.136719 135.296875 140.417969 C 135.464844 138.699219 135.71875 136.992188 136.054688 135.296875 C 136.394531 133.605469 136.8125 131.929688 137.3125 130.277344 C 137.816406 128.625 138.394531 127 139.058594 125.402344 C 139.71875 123.804688 140.457031 122.246094 141.269531 120.722656 C 142.085938 119.199219 142.972656 117.71875 143.933594 116.28125 C 144.890625 114.84375 145.921875 113.460938 147.015625 112.125 C 148.113281 110.789062 149.269531 109.507812 150.492188 108.289062 C 151.714844 107.066406 152.992188 105.90625 154.328125 104.8125 C 155.664062 103.714844 157.050781 102.6875 158.488281 101.726562 C 159.921875 100.765625 161.402344 99.878906 162.925781 99.066406 C 164.449219 98.25 166.011719 97.511719 167.605469 96.851562 C 169.203125 96.191406 170.828125 95.609375 172.480469 95.109375 C 174.132812 94.605469 175.808594 94.1875 177.503906 93.851562 C 179.195312 93.511719 180.90625 93.261719 182.625 93.089844 C 184.34375 92.921875 186.066406 92.835938 187.792969 92.835938 C 189.523438 92.835938 191.246094 92.921875 192.964844 93.089844 C 194.683594 93.261719 196.390625 93.511719 198.085938 93.851562 C 199.78125 94.1875 201.453125 94.605469 203.109375 95.109375 C 204.761719 95.609375 206.386719 96.191406 207.980469 96.851562 C 209.578125 97.511719 211.136719 98.25 212.664062 99.066406 C 214.1875 99.878906 215.667969 100.765625 217.101562 101.726562 C 218.539062 102.6875 219.925781 103.714844 221.261719 104.8125 C 222.597656 105.90625 223.875 107.066406 225.097656 108.289062 C 226.320312 109.507812 227.476562 110.789062 228.574219 112.125 C 229.667969 113.460938 230.699219 114.84375 231.65625 116.28125 C 232.617188 117.71875 233.503906 119.199219 234.320312 120.722656 C 235.132812 122.246094 235.871094 123.804688 236.53125 125.402344 C 237.191406 127 237.773438 128.621094 238.277344 130.277344 C 238.777344 131.929688 239.195312 133.605469 239.535156 135.296875 C 239.871094 136.992188 240.125 138.699219 240.292969 140.417969 C 240.460938 142.136719 240.546875 143.863281 240.546875 145.589844 Z M 240.546875 145.589844 " fill-opacity="1" fill-rule="nonzero"/><path fill="#faa500" d="M 299.4375 277.09375 C 299.4375 278.054688 299.394531 279.011719 299.304688 279.972656 C 299.214844 280.933594 299.078125 281.890625 298.902344 282.847656 C 298.722656 283.804688 298.5 284.757812 298.230469 285.707031 C 297.960938 286.65625 297.648438 287.601562 297.292969 288.546875 C 296.9375 289.488281 296.535156 290.425781 296.09375 291.355469 C 295.648438 292.289062 295.160156 293.214844 294.628906 294.132812 C 294.101562 295.054688 293.527344 295.964844 292.910156 296.871094 C 292.296875 297.773438 291.636719 298.671875 290.9375 299.558594 C 290.238281 300.445312 289.5 301.324219 288.71875 302.191406 C 287.9375 303.0625 287.117188 303.917969 286.253906 304.765625 C 285.394531 305.613281 284.492188 306.449219 283.554688 307.273438 C 282.613281 308.097656 281.636719 308.910156 280.621094 309.707031 C 279.605469 310.507812 278.554688 311.292969 277.46875 312.066406 C 276.378906 312.835938 275.253906 313.59375 274.097656 314.335938 C 272.9375 315.078125 271.742188 315.804688 270.515625 316.519531 C 269.289062 317.230469 268.03125 317.925781 266.738281 318.605469 C 265.445312 319.285156 264.125 319.945312 262.769531 320.59375 C 261.414062 321.238281 260.03125 321.863281 258.621094 322.472656 C 257.207031 323.082031 255.769531 323.675781 254.300781 324.246094 C 252.832031 324.820312 251.339844 325.371094 249.820312 325.90625 C 248.300781 326.441406 246.757812 326.953125 245.191406 327.449219 C 243.625 327.941406 242.035156 328.414062 240.421875 328.867188 C 238.8125 329.320312 237.179688 329.753906 235.527344 330.164062 C 233.875 330.574219 232.207031 330.964844 230.519531 331.332031 C 228.832031 331.699219 227.125 332.042969 225.40625 332.367188 C 223.6875 332.691406 221.953125 332.992188 220.203125 333.273438 C 218.453125 333.550781 216.695312 333.808594 214.921875 334.039062 C 213.148438 334.273438 211.367188 334.484375 209.574219 334.671875 C 207.78125 334.859375 205.984375 335.023438 204.175781 335.164062 C 202.367188 335.304688 200.554688 335.421875 198.738281 335.519531 C 196.917969 335.613281 195.097656 335.683594 193.273438 335.730469 C 191.449219 335.777344 189.621094 335.800781 187.792969 335.800781 C 185.96875 335.800781 184.140625 335.777344 182.316406 335.730469 C 180.492188 335.683594 178.671875 335.613281 176.851562 335.519531 C 175.035156 335.421875 173.222656 335.304688 171.414062 335.164062 C 169.605469 335.023438 167.804688 334.859375 166.015625 334.671875 C 164.222656 334.484375 162.441406 334.273438 160.667969 334.039062 C 158.894531 333.808594 157.136719 333.550781 155.386719 333.273438 C 153.636719 332.992188 151.902344 332.691406 150.183594 332.367188 C 148.460938 332.042969 146.757812 331.699219 145.070312 331.332031 C 143.382812 330.964844 141.710938 330.574219 140.0625 330.164062 C 138.410156 329.753906 136.777344 329.320312 135.167969 328.867188 C 133.554688 328.414062 131.964844 327.941406 130.398438 327.449219 C 128.832031 326.953125 127.289062 326.441406 125.769531 325.90625 C 124.25 325.371094 122.757812 324.820312 121.289062 324.246094 C 119.820312 323.675781 118.382812 323.082031 116.96875 322.472656 C 115.554688 321.863281 114.171875 321.238281 112.820312 320.59375 C 111.464844 319.945312 110.144531 319.285156 108.851562 318.605469 C 107.558594 317.925781 106.300781 317.230469 105.074219 316.519531 C 103.84375 315.804688 102.652344 315.078125 101.492188 314.335938 C 100.335938 313.59375 99.210938 312.835938 98.121094 312.066406 C 97.035156 311.292969 95.980469 310.507812 94.964844 309.707031 C 93.953125 308.910156 92.972656 308.097656 92.035156 307.273438 C 91.09375 306.449219 90.195312 305.613281 89.335938 304.765625 C 88.472656 303.917969 87.652344 303.0625 86.871094 302.191406 C 86.089844 301.324219 85.347656 300.445312 84.648438 299.558594 C 83.949219 298.671875 83.292969 297.773438 82.675781 296.871094 C 82.0625 295.964844 81.488281 295.054688 80.957031 294.132812 C 80.429688 293.214844 79.941406 292.289062 79.496094 291.355469 C 79.054688 290.425781 78.652344 289.488281 78.296875 288.546875 C 77.941406 287.601562 77.628906 286.65625 77.359375 285.707031 C 77.089844 284.757812 76.867188 283.804688 76.6875 282.847656 C 76.511719 281.890625 76.375 280.933594 76.285156 279.972656 C 76.195312 279.011719 76.152344 278.054688 76.152344 277.09375 C 76.152344 276.132812 76.195312 275.171875 76.285156 274.210938 C 76.375 273.253906 76.511719 272.292969 76.6875 271.339844 C 76.867188 270.382812 77.089844 269.429688 77.359375 268.476562 C 77.628906 267.527344 77.941406 266.582031 78.296875 265.640625 C 78.652344 264.695312 79.054688 263.757812 79.496094 262.828125 C 79.941406 261.894531 80.429688 260.96875 80.957031 260.050781 C 81.488281 259.132812 82.0625 258.21875 82.675781 257.3125 C 83.292969 256.410156 83.949219 255.511719 84.648438 254.625 C 85.347656 253.738281 86.089844 252.859375 86.871094 251.992188 C 87.652344 251.125 88.472656 250.265625 89.332031 249.417969 C 90.195312 248.570312 91.09375 247.734375 92.035156 246.910156 C 92.972656 246.085938 93.953125 245.273438 94.964844 244.476562 C 95.980469 243.675781 97.03125 242.890625 98.121094 242.121094 C 99.210938 241.347656 100.332031 240.589844 101.492188 239.847656 C 102.652344 239.105469 103.84375 238.378906 105.074219 237.667969 C 106.300781 236.953125 107.558594 236.257812 108.851562 235.578125 C 110.144531 234.898438 111.464844 234.238281 112.820312 233.59375 C 114.171875 232.949219 115.554688 232.320312 116.96875 231.710938 C 118.382812 231.101562 119.820312 230.511719 121.289062 229.9375 C 122.757812 229.367188 124.25 228.8125 125.769531 228.277344 C 127.289062 227.746094 128.832031 227.230469 130.398438 226.738281 C 131.964844 226.242188 133.554688 225.769531 135.167969 225.316406 C 136.777344 224.863281 138.410156 224.433594 140.0625 224.019531 C 141.710938 223.609375 143.382812 223.222656 145.070312 222.851562 C 146.757812 222.484375 148.460938 222.140625 150.183594 221.816406 C 151.902344 221.492188 153.636719 221.191406 155.386719 220.914062 C 157.136719 220.632812 158.894531 220.378906 160.667969 220.144531 C 162.441406 219.910156 164.222656 219.699219 166.015625 219.511719 C 167.804688 219.324219 169.605469 219.160156 171.414062 219.019531 C 173.222656 218.878906 175.035156 218.761719 176.851562 218.667969 C 178.671875 218.574219 180.492188 218.503906 182.316406 218.457031 C 184.140625 218.410156 185.96875 218.382812 187.792969 218.382812 C 189.621094 218.382812 191.449219 218.410156 193.273438 218.457031 C 195.097656 218.503906 196.921875 218.574219 198.738281 218.667969 C 200.554688 218.761719 202.367188 218.878906 204.175781 219.019531 C 205.984375 219.160156 207.78125 219.324219 209.574219 219.511719 C 211.367188 219.699219 213.148438 219.910156 214.921875 220.144531 C 216.695312 220.378906 218.457031 220.632812 220.203125 220.914062 C 221.953125 221.191406 223.6875 221.492188 225.40625 221.816406 C 227.125 222.140625 228.832031 222.484375 230.519531 222.851562 C 232.207031 223.222656 233.875 223.609375 235.527344 224.019531 C 237.179688 224.433594 238.8125 224.863281 240.421875 225.316406 C 242.035156 225.769531 243.625 226.242188 245.191406 226.738281 C 246.757812 227.230469 248.300781 227.746094 249.820312 228.277344 C 251.339844 228.8125 252.832031 229.367188 254.300781 229.9375 C 255.769531 230.511719 257.207031 231.101562 258.621094 231.710938 C 260.03125 232.320312 261.414062 232.949219 262.769531 233.59375 C 264.125 234.238281 265.445312 234.898438 266.738281 235.578125 C 268.03125 236.257812 269.289062 236.953125 270.515625 237.667969 C 271.746094 238.378906 272.9375 239.105469 274.097656 239.847656 C 275.253906 240.589844 276.378906 241.347656 277.46875 242.121094 C 278.554688 242.890625 279.609375 243.675781 280.621094 244.476562 C 281.636719 245.273438 282.617188 246.085938 283.554688 246.910156 C 284.492188 247.734375 285.394531 248.570312 286.253906 249.417969 C 287.117188 250.265625 287.9375 251.121094 288.71875 251.992188 C 289.5 252.859375 290.238281 253.738281 290.9375 254.625 C 291.636719 255.511719 292.296875 256.410156 292.910156 257.3125 C 293.527344 258.21875 294.101562 259.132812 294.628906 260.050781 C 295.160156 260.96875 295.648438 261.894531 296.09375 262.828125 C 296.535156 263.757812 296.9375 264.695312 297.292969 265.640625 C 297.648438 266.582031 297.960938 267.527344 298.230469 268.476562 C 298.5 269.429688 298.722656 270.382812 298.902344 271.339844 C 299.078125 272.292969 299.214844 273.253906 299.304688 274.210938 C 299.394531 275.171875 299.4375 276.132812 299.4375 277.09375 Z M 299.4375 277.09375 " fill-opacity="1" fill-rule="nonzero"/><g clip-path="url(#aa9bb02f13)"><g clip-path="url(#e7b6795fe1)"><g transform="matrix(1, 0, 0, 1, 171, 153)"><g clip-path="url(#339500d8d7)"><g clip-path="url(#e2d83a65a3)"><g clip-path="url(#83f43b3b92)"><rect x="-253.5" width="540" fill="#faa500" height="539.999987" y="-235.499998" fill-opacity="1"/></g></g></g></g></g></g></svg>