<svg xmlns="http://www.w3.org/2000/svg" xmlns:xlink="http://www.w3.org/1999/xlink" width="500" zoomAndPan="magnify" viewBox="0 0 375 322.499991" height="430" preserveAspectRatio="xMidYMid meet" version="1.0"><defs><clipPath id="92f3a5027e"><path d="M 0.289062 0 L 374.707031 0 L 374.707031 322 L 0.289062 322 Z M 0.289062 0 " clip-rule="nonzero"/></clipPath><clipPath id="eeb07699f6"><path d="M 0.289062 51.597656 L 259.992188 51.597656 L 259.992188 270.292969 L 0.289062 270.292969 Z M 0.289062 51.597656 " clip-rule="nonzero"/></clipPath><clipPath id="e1e6a8dd3f"><path d="M 259.394531 160.945312 L 195.773438 270.292969 L 63.910156 270.292969 L 0.289062 160.945312 L 63.910156 51.597656 L 195.773438 51.597656 Z M 259.394531 160.945312 " clip-rule="nonzero"/></clipPath><clipPath id="3f8c48dea7"><path d="M 0.289062 0.597656 L 259.566406 0.597656 L 259.566406 219.292969 L 0.289062 219.292969 Z M 0.289062 0.597656 " clip-rule="nonzero"/></clipPath><clipPath id="13ac3560a8"><path d="M 259.394531 109.945312 L 195.773438 219.292969 L 63.910156 219.292969 L 0.289062 109.945312 L 63.910156 0.597656 L 195.773438 0.597656 Z M 259.394531 109.945312 " clip-rule="nonzero"/></clipPath><clipPath id="37fff3a651"><rect x="0" width="260" y="0" height="220"/></clipPath><clipPath id="c7a11036b8"><path d="M 35.386719 81.21875 L 224.734375 81.21875 L 224.734375 240.671875 L 35.386719 240.671875 Z M 35.386719 81.21875 " clip-rule="nonzero"/></clipPath><clipPath id="f956cbb3a4"><path d="M 224.296875 160.945312 L 177.910156 240.671875 L 81.773438 240.671875 L 35.386719 160.945312 L 81.773438 81.21875 L 177.910156 81.21875 Z M 224.296875 160.945312 " clip-rule="nonzero"/></clipPath><clipPath id="8b72a3f4c5"><path d="M 0.386719 0.21875 L 189.34375 0.21875 L 189.34375 159.671875 L 0.386719 159.671875 Z M 0.386719 0.21875 " clip-rule="nonzero"/></clipPath><clipPath id="396ecd9c01"><path d="M 189.296875 79.945312 L 142.910156 159.671875 L 46.773438 159.671875 L 0.386719 79.945312 L 46.773438 0.21875 L 142.910156 0.21875 Z M 189.296875 79.945312 " clip-rule="nonzero"/></clipPath><clipPath id="e72bc4c909"><rect x="0" width="190" y="0" height="160"/></clipPath><clipPath id="487d5cedd2"><path d="M 115.605469 83.910156 L 374.707031 83.910156 L 374.707031 302.605469 L 115.605469 302.605469 Z M 115.605469 83.910156 " clip-rule="nonzero"/></clipPath><clipPath id="f261758dff"><path d="M 374.710938 193.257812 L 311.089844 302.605469 L 179.226562 302.605469 L 115.605469 193.257812 L 179.226562 83.910156 L 311.089844 83.910156 Z M 374.710938 193.257812 " clip-rule="nonzero"/></clipPath><clipPath id="d07bd2631d"><path d="M 0.605469 0.910156 L 259.707031 0.910156 L 259.707031 219.605469 L 0.605469 219.605469 Z M 0.605469 0.910156 " clip-rule="nonzero"/></clipPath><clipPath id="d369a83de3"><path d="M 259.710938 110.257812 L 196.089844 219.605469 L 64.226562 219.605469 L 0.605469 110.257812 L 64.226562 0.910156 L 196.089844 0.910156 Z M 259.710938 110.257812 " clip-rule="nonzero"/></clipPath><clipPath id="a2de717dd2"><rect x="0" width="260" y="0" height="220"/></clipPath><clipPath id="2f312e9cb3"><path d="M 150.703125 113.53125 L 340 113.53125 L 340 272.984375 L 150.703125 272.984375 Z M 150.703125 113.53125 " clip-rule="nonzero"/></clipPath><clipPath id="cd0de4322d"><path d="M 339.613281 193.257812 L 293.226562 272.984375 L 197.089844 272.984375 L 150.703125 193.257812 L 197.089844 113.53125 L 293.226562 113.53125 Z M 339.613281 193.257812 " clip-rule="nonzero"/></clipPath><clipPath id="e04cb80737"><path d="M 0.703125 0.53125 L 189.84375 0.53125 L 189.84375 159.984375 L 0.703125 159.984375 Z M 0.703125 0.53125 " clip-rule="nonzero"/></clipPath><clipPath id="1a0a312fe0"><path d="M 189.613281 80.257812 L 143.226562 159.984375 L 47.089844 159.984375 L 0.703125 80.257812 L 47.089844 0.53125 L 143.226562 0.53125 Z M 189.613281 80.257812 " clip-rule="nonzero"/></clipPath><clipPath id="830482b136"><rect x="0" width="190" y="0" height="160"/></clipPath><clipPath id="6769e20950"><path d="M 167 144 L 260 144 L 260 271 L 167 271 Z M 167 144 " clip-rule="nonzero"/></clipPath><clipPath id="4181d90a3e"><path d="M 167.957031 254.671875 L 232.527344 144.84375 L 259.898438 160.9375 L 195.328125 270.765625 Z M 167.957031 254.671875 " clip-rule="nonzero"/></clipPath><clipPath id="111528a20e"><path d="M 0.789062 0.734375 L 93 0.734375 L 93 126.78125 L 0.789062 126.78125 Z M 0.789062 0.734375 " clip-rule="nonzero"/></clipPath><clipPath id="35b57c595e"><path d="M 0.957031 110.671875 L 65.527344 0.84375 L 92.898438 16.9375 L 28.328125 126.765625 Z M 0.957031 110.671875 " clip-rule="nonzero"/></clipPath><clipPath id="ef82dc8cab"><rect x="0" width="93" y="0" height="127"/></clipPath><clipPath id="2036c1de3c"><path d="M 169 51 L 260 51 L 260 177 L 169 177 Z M 169 51 " clip-rule="nonzero"/></clipPath><clipPath id="54921a1c14"><path d="M 195.84375 51.132812 L 259.894531 161.253906 L 233.140625 176.816406 L 169.089844 66.695312 Z M 195.84375 51.132812 " clip-rule="nonzero"/></clipPath><clipPath id="43fe67e28e"><path d="M 0 0.0390625 L 91 0.0390625 L 91 125.847656 L 0 125.847656 Z M 0 0.0390625 " clip-rule="nonzero"/></clipPath><clipPath id="c49020c015"><path d="M 26.84375 0.132812 L 90.894531 110.253906 L 64.140625 125.816406 L 0.0898438 15.695312 Z M 26.84375 0.132812 " clip-rule="nonzero"/></clipPath><clipPath id="c05b17abc5"><rect x="0" width="91" y="0" height="126"/></clipPath><clipPath id="c6020675e6"><path d="M 167 216 L 208 216 L 208 271 L 167 271 Z M 167 216 " clip-rule="nonzero"/></clipPath><clipPath id="8ed82e21f7"><path d="M 179.796875 216.253906 L 207.5 263.882812 L 195.652344 270.773438 L 167.953125 223.144531 Z M 179.796875 216.253906 " clip-rule="nonzero"/></clipPath><clipPath id="b931e94bc6"><path d="M 0.789062 0.144531 L 40.570312 0.144531 L 40.570312 54.78125 L 0.789062 54.78125 Z M 0.789062 0.144531 " clip-rule="nonzero"/></clipPath><clipPath id="b1d14d9a56"><path d="M 12.796875 0.253906 L 40.5 47.882812 L 28.652344 54.773438 L 0.953125 7.144531 Z M 12.796875 0.253906 " clip-rule="nonzero"/></clipPath><clipPath id="de13159f56"><rect x="0" width="41" y="0" height="55"/></clipPath><clipPath id="c60456ab9c"><path d="M 166 83 L 212 83 L 212 146 L 166 146 Z M 166 83 " clip-rule="nonzero"/></clipPath><clipPath id="507246b885"><path d="M 178.628906 83.089844 L 211.113281 138.6875 L 199.097656 145.707031 L 166.613281 90.113281 Z M 178.628906 83.089844 " clip-rule="nonzero"/></clipPath><clipPath id="448c34279f"><path d="M 0.59375 0 L 45.164062 0 L 45.164062 62.933594 L 0.59375 62.933594 Z M 0.59375 0 " clip-rule="nonzero"/></clipPath><clipPath id="bd0b330d7c"><path d="M 12.628906 0.0898438 L 45.113281 55.6875 L 33.097656 62.707031 L 0.613281 7.113281 Z M 12.628906 0.0898438 " clip-rule="nonzero"/></clipPath><clipPath id="ed858ad847"><rect x="0" width="46" y="0" height="63"/></clipPath></defs><g clip-path="url(#92f3a5027e)"><path fill="#ffffff" d="M 0.289062 0 L 374.710938 0 L 374.710938 322 L 0.289062 322 Z M 0.289062 0 " fill-opacity="1" fill-rule="nonzero"/><path fill="#000000" d="M 0.289062 0 L 374.710938 0 L 374.710938 322 L 0.289062 322 Z M 0.289062 0 " fill-opacity="1" fill-rule="nonzero"/></g><g clip-path="url(#eeb07699f6)"><g clip-path="url(#e1e6a8dd3f)"><g transform="matrix(1, 0, 0, 1, 0.000000000000000056, 51)"><g clip-path="url(#37fff3a651)"><g clip-path="url(#3f8c48dea7)"><g clip-path="url(#13ac3560a8)"><path fill="#faa500" d="M 0.289062 0.597656 L 259.136719 0.597656 L 259.136719 219.292969 L 0.289062 219.292969 Z M 0.289062 0.597656 " fill-opacity="1" fill-rule="nonzero"/></g></g></g></g></g></g><g clip-path="url(#c7a11036b8)"><g clip-path="url(#f956cbb3a4)"><g transform="matrix(1, 0, 0, 1, 35, 81)"><g clip-path="url(#e72bc4c909)"><g clip-path="url(#8b72a3f4c5)"><g clip-path="url(#396ecd9c01)"><path fill="#000000" d="M 0.386719 0.21875 L 189.109375 0.21875 L 189.109375 159.671875 L 0.386719 159.671875 Z M 0.386719 0.21875 " fill-opacity="1" fill-rule="nonzero"/></g></g></g></g></g></g><g clip-path="url(#487d5cedd2)"><g clip-path="url(#f261758dff)"><g transform="matrix(1, 0, 0, 1, 115, 83)"><g clip-path="url(#a2de717dd2)"><g clip-path="url(#d07bd2631d)"><g clip-path="url(#d369a83de3)"><path fill="#faa500" d="M 0.605469 0.910156 L 259.453125 0.910156 L 259.453125 219.605469 L 0.605469 219.605469 Z M 0.605469 0.910156 " fill-opacity="1" fill-rule="nonzero"/></g></g></g></g></g></g><g clip-path="url(#2f312e9cb3)"><g clip-path="url(#cd0de4322d)"><g transform="matrix(1, 0, 0, 1, 150, 113)"><g clip-path="url(#830482b136)"><g clip-path="url(#e04cb80737)"><g clip-path="url(#1a0a312fe0)"><path fill="#000000" d="M 0.703125 0.53125 L 189.425781 0.53125 L 189.425781 159.984375 L 0.703125 159.984375 Z M 0.703125 0.53125 " fill-opacity="1" fill-rule="nonzero"/></g></g></g></g></g></g><g clip-path="url(#6769e20950)"><g clip-path="url(#4181d90a3e)"><g transform="matrix(1, 0, 0, 1, 167, 144)"><g clip-path="url(#ef82dc8cab)"><g clip-path="url(#111528a20e)"><g clip-path="url(#35b57c595e)"><path fill="#faa500" d="M 0.957031 110.671875 L 65.519531 0.859375 L 92.890625 16.953125 L 28.328125 126.765625 Z M 0.957031 110.671875 " fill-opacity="1" fill-rule="nonzero"/></g></g></g></g></g></g><g clip-path="url(#2036c1de3c)"><g clip-path="url(#54921a1c14)"><g transform="matrix(1, 0, 0, 1, 169, 51)"><g clip-path="url(#c05b17abc5)"><g clip-path="url(#43fe67e28e)"><g clip-path="url(#c49020c015)"><path fill="#faa500" d="M 26.84375 0.132812 L 90.910156 110.277344 L 64.15625 125.839844 L 0.0898438 15.695312 Z M 26.84375 0.132812 " fill-opacity="1" fill-rule="nonzero"/></g></g></g></g></g></g><g clip-path="url(#c6020675e6)"><g clip-path="url(#8ed82e21f7)"><g transform="matrix(1, 0, 0, 1, 167, 216)"><g clip-path="url(#de13159f56)"><g clip-path="url(#b931e94bc6)"><g clip-path="url(#b1d14d9a56)"><path fill="#000000" d="M 12.796875 0.253906 L 40.488281 47.867188 L 28.644531 54.757812 L 0.953125 7.144531 Z M 12.796875 0.253906 " fill-opacity="1" fill-rule="nonzero"/></g></g></g></g></g></g><g clip-path="url(#c60456ab9c)"><g clip-path="url(#507246b885)"><g transform="matrix(1, 0, 0, 1, 166, 83)"><g clip-path="url(#ed858ad847)"><g clip-path="url(#448c34279f)"><g clip-path="url(#bd0b330d7c)"><path fill="#000000" d="M 12.628906 0.0898438 L 45.101562 55.664062 L 33.085938 62.6875 L 0.613281 7.113281 Z M 12.628906 0.0898438 " fill-opacity="1" fill-rule="nonzero"/></g></g></g></g></g></g></svg>