<svg xmlns="http://www.w3.org/2000/svg" xmlns:xlink="http://www.w3.org/1999/xlink" width="500" zoomAndPan="magnify" viewBox="0 0 375 322.499991" height="430" preserveAspectRatio="xMidYMid meet" version="1.0"><defs><clipPath id="6a304bfa4b"><path d="M 0.289062 0 L 374.707031 0 L 374.707031 322 L 0.289062 322 Z M 0.289062 0 " clip-rule="nonzero"/></clipPath><clipPath id="7d8addcf72"><path d="M 0.289062 19 L 374.707031 19 L 374.707031 303 L 0.289062 303 Z M 0.289062 19 " clip-rule="nonzero"/></clipPath><clipPath id="6aecbbc927"><path d="M 0.289062 1.210938 L 283 1.210938 L 283 239.414062 L 0.289062 239.414062 Z M 0.289062 1.210938 " clip-rule="nonzero"/></clipPath><clipPath id="b4a5492d95"><path d="M 282.503906 120.3125 L 213.210938 239.414062 L 69.585938 239.414062 L 0.289062 120.3125 L 69.585938 1.210938 L 213.210938 1.210938 Z M 282.503906 120.3125 " clip-rule="nonzero"/></clipPath><clipPath id="c66210af7a"><path d="M 0.289062 0.210938 L 282.574219 0.210938 L 282.574219 238.414062 L 0.289062 238.414062 Z M 0.289062 0.210938 " clip-rule="nonzero"/></clipPath><clipPath id="3fc9a49e92"><path d="M 282.503906 119.3125 L 213.210938 238.414062 L 69.585938 238.414062 L 0.289062 119.3125 L 69.585938 0.210938 L 213.210938 0.210938 Z M 282.503906 119.3125 " clip-rule="nonzero"/></clipPath><clipPath id="1f5c605d76"><rect x="0" width="283" y="0" height="239"/></clipPath><clipPath id="41950be3c0"><path d="M 38.515625 33.476562 L 244.753906 33.476562 L 244.753906 207.148438 L 38.515625 207.148438 Z M 38.515625 33.476562 " clip-rule="nonzero"/></clipPath><clipPath id="e397e20ec5"><path d="M 244.277344 120.3125 L 193.753906 207.148438 L 89.039062 207.148438 L 38.515625 120.3125 L 89.039062 33.476562 L 193.753906 33.476562 Z M 244.277344 120.3125 " clip-rule="nonzero"/></clipPath><clipPath id="a41155efa8"><path d="M 0.515625 0.476562 L 206.472656 0.476562 L 206.472656 174.148438 L 0.515625 174.148438 Z M 0.515625 0.476562 " clip-rule="nonzero"/></clipPath><clipPath id="6b051b23ea"><path d="M 206.277344 87.3125 L 155.753906 174.148438 L 51.039062 174.148438 L 0.515625 87.3125 L 51.039062 0.476562 L 155.753906 0.476562 Z M 206.277344 87.3125 " clip-rule="nonzero"/></clipPath><clipPath id="d74eb946e6"><rect x="0" width="207" y="0" height="175"/></clipPath><clipPath id="b122bde723"><path d="M 92.496094 45.09375 L 374.707031 45.09375 L 374.707031 283.300781 L 92.496094 283.300781 Z M 92.496094 45.09375 " clip-rule="nonzero"/></clipPath><clipPath id="cc2a530991"><path d="M 374.710938 164.199219 L 305.414062 283.300781 L 161.789062 283.300781 L 92.496094 164.199219 L 161.789062 45.09375 L 305.414062 45.09375 Z M 374.710938 164.199219 " clip-rule="nonzero"/></clipPath><clipPath id="9982c85568"><path d="M 0.496094 0.09375 L 282.707031 0.09375 L 282.707031 238.300781 L 0.496094 238.300781 Z M 0.496094 0.09375 " clip-rule="nonzero"/></clipPath><clipPath id="ea1178a1b7"><path d="M 282.710938 119.199219 L 213.414062 238.300781 L 69.789062 238.300781 L 0.496094 119.199219 L 69.789062 0.09375 L 213.414062 0.09375 Z M 282.710938 119.199219 " clip-rule="nonzero"/></clipPath><clipPath id="5a04e0698a"><rect x="0" width="283" y="0" height="239"/></clipPath><clipPath id="8fc2fff0c5"><path d="M 130.722656 77.359375 L 336.957031 77.359375 L 336.957031 251.035156 L 130.722656 251.035156 Z M 130.722656 77.359375 " clip-rule="nonzero"/></clipPath><clipPath id="2615df6496"><path d="M 336.484375 164.199219 L 285.960938 251.035156 L 181.246094 251.035156 L 130.722656 164.199219 L 181.246094 77.359375 L 285.960938 77.359375 Z M 336.484375 164.199219 " clip-rule="nonzero"/></clipPath><clipPath id="3efce72b11"><path d="M 0.722656 0.359375 L 206.488281 0.359375 L 206.488281 174.035156 L 0.722656 174.035156 Z M 0.722656 0.359375 " clip-rule="nonzero"/></clipPath><clipPath id="4a22e8af0f"><path d="M 206.484375 87.199219 L 155.960938 174.035156 L 51.246094 174.035156 L 0.722656 87.199219 L 51.246094 0.359375 L 155.960938 0.359375 Z M 206.484375 87.199219 " clip-rule="nonzero"/></clipPath><clipPath id="62f2910ec3"><rect x="0" width="207" y="0" height="175"/></clipPath><clipPath id="c5ab1aba3f"><path d="M 184 103 L 284 103 L 284 240 L 184 240 Z M 184 103 " clip-rule="nonzero"/></clipPath><clipPath id="42a097349e"><path d="M 184.15625 222.023438 L 253.144531 103.144531 L 283.058594 120.507812 L 214.066406 239.386719 Z M 184.15625 222.023438 " clip-rule="nonzero"/></clipPath><clipPath id="da7164cb72"><path d="M 0.0859375 0 L 99.292969 0 L 99.292969 136.558594 L 0.0859375 136.558594 Z M 0.0859375 0 " clip-rule="nonzero"/></clipPath><clipPath id="1a60d6852a"><path d="M 0.15625 119.023438 L 69.144531 0.144531 L 99.058594 17.507812 L 30.066406 136.386719 Z M 0.15625 119.023438 " clip-rule="nonzero"/></clipPath><clipPath id="0e16273cd5"><rect x="0" width="100" y="0" height="137"/></clipPath><clipPath id="7ce0263fbe"><path d="M 184 0.648438 L 284 0.648438 L 284 138 L 184 138 Z M 184 0.648438 " clip-rule="nonzero"/></clipPath><clipPath id="0b0c1d7045"><path d="M 213.285156 0.707031 L 283.050781 120.648438 L 253.914062 137.597656 L 184.144531 17.65625 Z M 213.285156 0.707031 " clip-rule="nonzero"/></clipPath><clipPath id="ef97b1c19c"><path d="M 0.0859375 0.648438 L 99.050781 0.648438 L 99.050781 137.71875 L 0.0859375 137.71875 Z M 0.0859375 0.648438 " clip-rule="nonzero"/></clipPath><clipPath id="ea295b7303"><path d="M 29.285156 0.707031 L 99.050781 120.648438 L 69.914062 137.597656 L 0.144531 17.65625 Z M 29.285156 0.707031 " clip-rule="nonzero"/></clipPath><clipPath id="ddab2c00a0"><rect x="0" width="100" y="0" height="138"/></clipPath><clipPath id="ec8f5cb822"><path d="M 90.820312 207.148438 L 214.042969 207.148438 L 214.042969 239.414062 L 90.820312 239.414062 Z M 90.820312 207.148438 " clip-rule="nonzero"/></clipPath><clipPath id="7cd581e724"><path d="M 0.820312 0.148438 L 124.042969 0.148438 L 124.042969 32.414062 L 0.820312 32.414062 Z M 0.820312 0.148438 " clip-rule="nonzero"/></clipPath><clipPath id="46711c3ff7"><rect x="0" width="125" y="0" height="33"/></clipPath><clipPath id="e6ac3dbb83"><path d="M 217.894531 77.359375 L 270.664062 77.359375 L 270.664062 91.972656 L 217.894531 91.972656 Z M 217.894531 77.359375 " clip-rule="nonzero"/></clipPath><clipPath id="afe9c8e36a"><path d="M 0.894531 0.359375 L 53.664062 0.359375 L 53.664062 14.972656 L 0.894531 14.972656 Z M 0.894531 0.359375 " clip-rule="nonzero"/></clipPath><clipPath id="4345942621"><rect x="0" width="54" y="0" height="15"/></clipPath><clipPath id="a843516a39"><path d="M 107.578125 195.53125 L 160.347656 195.53125 L 160.347656 207.148438 L 107.578125 207.148438 Z M 107.578125 195.53125 " clip-rule="nonzero"/></clipPath><clipPath id="192fbc4e18"><path d="M 0.578125 0.53125 L 53.347656 0.53125 L 53.347656 12.148438 L 0.578125 12.148438 Z M 0.578125 0.53125 " clip-rule="nonzero"/></clipPath><clipPath id="aec12f0fa5"><rect x="0" width="54" y="0" height="13"/></clipPath><clipPath id="10f95a6d8e"><rect x="0" width="375" y="0" height="284"/></clipPath></defs><g clip-path="url(#6a304bfa4b)"><path fill="#ffffff" d="M 0.289062 0 L 374.710938 0 L 374.710938 322 L 0.289062 322 Z M 0.289062 0 " fill-opacity="1" fill-rule="nonzero"/><path fill="#000000" d="M 0.289062 0 L 374.710938 0 L 374.710938 322 L 0.289062 322 Z M 0.289062 0 " fill-opacity="1" fill-rule="nonzero"/></g><g clip-path="url(#7d8addcf72)"><g transform="matrix(1, 0, 0, 1, 0.000000000000000056, 19)"><g clip-path="url(#10f95a6d8e)"><g clip-path="url(#6aecbbc927)"><g clip-path="url(#b4a5492d95)"><g transform="matrix(1, 0, 0, 1, 0.000000000000000056, 1)"><g clip-path="url(#1f5c605d76)"><g clip-path="url(#c66210af7a)"><g clip-path="url(#3fc9a49e92)"><path fill="#faa500" d="M 0.289062 0.210938 L 282.226562 0.210938 L 282.226562 238.414062 L 0.289062 238.414062 Z M 0.289062 0.210938 " fill-opacity="1" fill-rule="nonzero"/></g></g></g></g></g></g><g clip-path="url(#41950be3c0)"><g clip-path="url(#e397e20ec5)"><g transform="matrix(1, 0, 0, 1, 38, 33)"><g clip-path="url(#d74eb946e6)"><g clip-path="url(#a41155efa8)"><g clip-path="url(#6b051b23ea)"><path fill="#000000" d="M 0.515625 0.476562 L 206.074219 0.476562 L 206.074219 174.148438 L 0.515625 174.148438 Z M 0.515625 0.476562 " fill-opacity="1" fill-rule="nonzero"/></g></g></g></g></g></g><g clip-path="url(#b122bde723)"><g clip-path="url(#cc2a530991)"><g transform="matrix(1, 0, 0, 1, 92, 45)"><g clip-path="url(#5a04e0698a)"><g clip-path="url(#9982c85568)"><g clip-path="url(#ea1178a1b7)"><path fill="#faa500" d="M 0.496094 0.09375 L 282.429688 0.09375 L 282.429688 238.300781 L 0.496094 238.300781 Z M 0.496094 0.09375 " fill-opacity="1" fill-rule="nonzero"/></g></g></g></g></g></g><g clip-path="url(#8fc2fff0c5)"><g clip-path="url(#2615df6496)"><g transform="matrix(1, 0, 0, 1, 130, 77)"><g clip-path="url(#62f2910ec3)"><g clip-path="url(#3efce72b11)"><g clip-path="url(#4a22e8af0f)"><path fill="#000000" d="M 0.722656 0.359375 L 206.28125 0.359375 L 206.28125 174.035156 L 0.722656 174.035156 Z M 0.722656 0.359375 " fill-opacity="1" fill-rule="nonzero"/></g></g></g></g></g></g><g clip-path="url(#c5ab1aba3f)"><g clip-path="url(#42a097349e)"><g transform="matrix(1, 0, 0, 1, 184, 103)"><g clip-path="url(#0e16273cd5)"><g clip-path="url(#da7164cb72)"><g clip-path="url(#1a60d6852a)"><path fill="#faa500" d="M 0.15625 119.023438 L 69.121094 0.1875 L 99.035156 17.546875 L 30.066406 136.386719 Z M 0.15625 119.023438 " fill-opacity="1" fill-rule="nonzero"/></g></g></g></g></g></g><g clip-path="url(#7ce0263fbe)"><g clip-path="url(#0b0c1d7045)"><g transform="matrix(1, 0, 0, 1, 184, -0.000000000000003553)"><g clip-path="url(#ddab2c00a0)"><g clip-path="url(#ef97b1c19c)"><g clip-path="url(#ea295b7303)"><path fill="#faa500" d="M 29.285156 0.707031 L 99.066406 120.675781 L 69.925781 137.625 L 0.144531 17.65625 Z M 29.285156 0.707031 " fill-opacity="1" fill-rule="nonzero"/></g></g></g></g></g></g><g clip-path="url(#ec8f5cb822)"><g transform="matrix(1, 0, 0, 1, 90, 207)"><g clip-path="url(#46711c3ff7)"><g clip-path="url(#7cd581e724)"><path fill="#faa500" d="M 0.820312 0.148438 L 124.085938 0.148438 L 124.085938 32.414062 L 0.820312 32.414062 Z M 0.820312 0.148438 " fill-opacity="1" fill-rule="nonzero"/></g></g></g></g><g clip-path="url(#e6ac3dbb83)"><g transform="matrix(1, 0, 0, 1, 217, 77)"><g clip-path="url(#4345942621)"><g clip-path="url(#afe9c8e36a)"><path fill="#000000" d="M 0.894531 0.359375 L 53.683594 0.359375 L 53.683594 14.972656 L 0.894531 14.972656 Z M 0.894531 0.359375 " fill-opacity="1" fill-rule="nonzero"/></g></g></g></g><g clip-path="url(#a843516a39)"><g transform="matrix(1, 0, 0, 1, 107, 195)"><g clip-path="url(#aec12f0fa5)"><g clip-path="url(#192fbc4e18)"><path fill="#000000" d="M 0.578125 0.53125 L 53.359375 0.53125 L 53.359375 12.148438 L 0.578125 12.148438 Z M 0.578125 0.53125 " fill-opacity="1" fill-rule="nonzero"/></g></g></g></g></g></g></g></svg>