<svg xmlns="http://www.w3.org/2000/svg" xmlns:xlink="http://www.w3.org/1999/xlink" width="446" zoomAndPan="magnify" viewBox="0 0 334.5 299.999988" height="400" preserveAspectRatio="xMidYMid meet" version="1.0"><defs><clipPath id="737eeef136"><path d="M 0 0.222656 L 334 0.222656 L 334 299.773438 L 0 299.773438 Z M 0 0.222656 " clip-rule="nonzero"/></clipPath><clipPath id="fafe31dda1"><path d="M 10.671875 6.230469 L 223.671875 6.230469 L 223.671875 189.308594 L 10.671875 189.308594 Z M 10.671875 6.230469 " clip-rule="nonzero"/></clipPath><clipPath id="42c992660a"><path d="M 223.675781 97.769531 L 170.425781 189.308594 L 63.921875 189.308594 L 10.671875 97.769531 L 63.921875 6.230469 L 170.425781 6.230469 Z M 223.675781 97.769531 " clip-rule="nonzero"/></clipPath><clipPath id="196dff3d39"><path d="M 223.675781 97.769531 L 170.425781 189.308594 L 63.921875 189.308594 L 10.671875 97.769531 L 63.921875 6.230469 L 170.425781 6.230469 Z M 223.675781 97.769531 " clip-rule="nonzero"/></clipPath><clipPath id="c9d1367d48"><path d="M 39.523438 31.03125 L 194.828125 31.03125 L 194.828125 164.511719 L 39.523438 164.511719 Z M 39.523438 31.03125 " clip-rule="nonzero"/></clipPath><clipPath id="722e255da7"><path d="M 194.820312 97.769531 L 155.996094 164.511719 L 78.347656 164.511719 L 39.523438 97.769531 L 78.347656 31.03125 L 155.996094 31.03125 Z M 194.820312 97.769531 " clip-rule="nonzero"/></clipPath><clipPath id="d556da26d8"><path d="M 194.820312 97.769531 L 155.996094 164.511719 L 78.347656 164.511719 L 39.523438 97.769531 L 78.347656 31.03125 L 155.996094 31.03125 Z M 194.820312 97.769531 " clip-rule="nonzero"/></clipPath><clipPath id="dfcc025885"><path d="M 47.371094 42.933594 L 260.375 42.933594 L 260.375 226.011719 L 47.371094 226.011719 Z M 47.371094 42.933594 " clip-rule="nonzero"/></clipPath><clipPath id="ecb12ed81a"><path d="M 260.378906 134.472656 L 207.125 226.011719 L 100.625 226.011719 L 47.371094 134.472656 L 100.625 42.933594 L 207.125 42.933594 Z M 260.378906 134.472656 " clip-rule="nonzero"/></clipPath><clipPath id="c8effe0171"><path d="M 260.378906 134.472656 L 207.125 226.011719 L 100.625 226.011719 L 47.371094 134.472656 L 100.625 42.933594 L 207.125 42.933594 Z M 260.378906 134.472656 " clip-rule="nonzero"/></clipPath><clipPath id="51ca96718b"><path d="M 76.226562 67.730469 L 231.527344 67.730469 L 231.527344 201.214844 L 76.226562 201.214844 Z M 76.226562 67.730469 " clip-rule="nonzero"/></clipPath><clipPath id="79c44fdc22"><path d="M 231.523438 134.472656 L 192.699219 201.214844 L 115.050781 201.214844 L 76.226562 134.472656 L 115.050781 67.730469 L 192.699219 67.730469 Z M 231.523438 134.472656 " clip-rule="nonzero"/></clipPath><clipPath id="135e9538aa"><path d="M 231.523438 134.472656 L 192.699219 201.214844 L 115.050781 201.214844 L 76.226562 134.472656 L 115.050781 67.730469 L 192.699219 67.730469 Z M 231.523438 134.472656 " clip-rule="nonzero"/></clipPath><clipPath id="7009f978e6"><path d="M 84.074219 79.632812 L 297.078125 79.632812 L 297.078125 262.714844 L 84.074219 262.714844 Z M 84.074219 79.632812 " clip-rule="nonzero"/></clipPath><clipPath id="985432576a"><path d="M 297.082031 171.175781 L 243.828125 262.714844 L 137.328125 262.714844 L 84.074219 171.175781 L 137.328125 79.632812 L 243.828125 79.632812 Z M 297.082031 171.175781 " clip-rule="nonzero"/></clipPath><clipPath id="152cbecf3f"><path d="M 297.082031 171.175781 L 243.828125 262.714844 L 137.328125 262.714844 L 84.074219 171.175781 L 137.328125 79.632812 L 243.828125 79.632812 Z M 297.082031 171.175781 " clip-rule="nonzero"/></clipPath><clipPath id="ab9f671e13"><path d="M 112.929688 104.433594 L 268.230469 104.433594 L 268.230469 237.917969 L 112.929688 237.917969 Z M 112.929688 104.433594 " clip-rule="nonzero"/></clipPath><clipPath id="8aa614d175"><path d="M 268.226562 171.175781 L 229.402344 237.917969 L 151.753906 237.917969 L 112.929688 171.175781 L 151.753906 104.433594 L 229.402344 104.433594 Z M 268.226562 171.175781 " clip-rule="nonzero"/></clipPath><clipPath id="1e6ecdf1db"><path d="M 268.226562 171.175781 L 229.402344 237.917969 L 151.753906 237.917969 L 112.929688 171.175781 L 151.753906 104.433594 L 229.402344 104.433594 Z M 268.226562 171.175781 " clip-rule="nonzero"/></clipPath><clipPath id="cc2a2926b1"><path d="M 0.683594 1.003906 L 213.6875 1.003906 L 213.6875 184.085938 L 0.683594 184.085938 Z M 0.683594 1.003906 " clip-rule="nonzero"/></clipPath><clipPath id="ee9f1a870f"><path d="M 213.6875 92.542969 L 160.4375 184.085938 L 53.933594 184.085938 L 0.683594 92.542969 L 53.933594 1.003906 L 160.4375 1.003906 Z M 213.6875 92.542969 " clip-rule="nonzero"/></clipPath><clipPath id="df301af2fd"><path d="M 213.6875 92.542969 L 160.4375 184.085938 L 53.933594 184.085938 L 0.683594 92.542969 L 53.933594 1.003906 L 160.4375 1.003906 Z M 213.6875 92.542969 " clip-rule="nonzero"/></clipPath><clipPath id="d5d63b9af3"><path d="M 0.683594 1.003906 L 213.6875 1.003906 L 213.6875 184.085938 L 0.683594 184.085938 Z M 0.683594 1.003906 " clip-rule="nonzero"/></clipPath><clipPath id="99448a16fa"><path d="M 213.6875 92.542969 L 160.4375 184.085938 L 53.933594 184.085938 L 0.683594 92.542969 L 53.933594 1.003906 L 160.4375 1.003906 Z M 213.6875 92.542969 " clip-rule="nonzero"/></clipPath><clipPath id="fb9dac919b"><path d="M 29.539062 25.804688 L 184.839844 25.804688 L 184.839844 159.285156 L 29.539062 159.285156 Z M 29.539062 25.804688 " clip-rule="nonzero"/></clipPath><clipPath id="3419b016eb"><path d="M 184.835938 92.542969 L 146.011719 159.285156 L 68.363281 159.285156 L 29.539062 92.542969 L 68.363281 25.804688 L 146.011719 25.804688 Z M 184.835938 92.542969 " clip-rule="nonzero"/></clipPath><clipPath id="e00cd06d14"><path d="M 184.835938 92.542969 L 146.011719 159.285156 L 68.363281 159.285156 L 29.539062 92.542969 L 68.363281 25.804688 L 146.011719 25.804688 Z M 184.835938 92.542969 " clip-rule="nonzero"/></clipPath><clipPath id="c56ebca1a3"><path d="M 88.066406 36.660156 L 126.371094 36.660156 L 126.371094 148.464844 L 88.066406 148.464844 Z M 88.066406 36.660156 " clip-rule="nonzero"/></clipPath><clipPath id="c0f3b33d8a"><path d="M 115.792969 36.660156 L 126.269531 39.320312 L 98.578125 148.429688 L 88.097656 145.769531 Z M 115.792969 36.660156 " clip-rule="nonzero"/></clipPath><clipPath id="06a63742a1"><path d="M 115.792969 36.660156 L 126.269531 39.320312 L 98.578125 148.429688 L 88.097656 145.769531 Z M 115.792969 36.660156 " clip-rule="nonzero"/></clipPath><clipPath id="ff0101cfcd"><path d="M 37.386719 37.707031 L 250.390625 37.707031 L 250.390625 220.789062 L 37.386719 220.789062 Z M 37.386719 37.707031 " clip-rule="nonzero"/></clipPath><clipPath id="d7fe182257"><path d="M 250.390625 129.246094 L 197.140625 220.789062 L 90.636719 220.789062 L 37.386719 129.246094 L 90.636719 37.707031 L 197.140625 37.707031 Z M 250.390625 129.246094 " clip-rule="nonzero"/></clipPath><clipPath id="51a3da0020"><path d="M 250.390625 129.246094 L 197.140625 220.789062 L 90.636719 220.789062 L 37.386719 129.246094 L 90.636719 37.707031 L 197.140625 37.707031 Z M 250.390625 129.246094 " clip-rule="nonzero"/></clipPath><clipPath id="bb979f345c"><path d="M 37.386719 37.707031 L 250.390625 37.707031 L 250.390625 220.789062 L 37.386719 220.789062 Z M 37.386719 37.707031 " clip-rule="nonzero"/></clipPath><clipPath id="af1470c829"><path d="M 250.390625 129.246094 L 197.140625 220.789062 L 90.636719 220.789062 L 37.386719 129.246094 L 90.636719 37.707031 L 197.140625 37.707031 Z M 250.390625 129.246094 " clip-rule="nonzero"/></clipPath><clipPath id="9490a11cd0"><path d="M 66.238281 62.507812 L 221.542969 62.507812 L 221.542969 195.988281 L 66.238281 195.988281 Z M 66.238281 62.507812 " clip-rule="nonzero"/></clipPath><clipPath id="24f6ffa26c"><path d="M 221.539062 129.246094 L 182.714844 195.988281 L 105.0625 195.988281 L 66.238281 129.246094 L 105.0625 62.507812 L 182.714844 62.507812 Z M 221.539062 129.246094 " clip-rule="nonzero"/></clipPath><clipPath id="b72311f633"><path d="M 221.539062 129.246094 L 182.714844 195.988281 L 105.0625 195.988281 L 66.238281 129.246094 L 105.0625 62.507812 L 182.714844 62.507812 Z M 221.539062 129.246094 " clip-rule="nonzero"/></clipPath><clipPath id="ccb2032092"><path d="M 124.769531 73.363281 L 163 73.363281 L 163 185.164062 L 124.769531 185.164062 Z M 124.769531 73.363281 " clip-rule="nonzero"/></clipPath><clipPath id="b35958db16"><path d="M 152.496094 73.363281 L 162.972656 76.023438 L 135.28125 185.132812 L 124.800781 182.472656 Z M 152.496094 73.363281 " clip-rule="nonzero"/></clipPath><clipPath id="6fa0f0eb3c"><path d="M 152.496094 73.363281 L 162.972656 76.023438 L 135.28125 185.132812 L 124.800781 182.472656 Z M 152.496094 73.363281 " clip-rule="nonzero"/></clipPath><clipPath id="7a4011b87a"><path d="M 74.089844 74.410156 L 287.089844 74.410156 L 287.089844 257.488281 L 74.089844 257.488281 Z M 74.089844 74.410156 " clip-rule="nonzero"/></clipPath><clipPath id="addaf0633e"><path d="M 287.09375 165.949219 L 233.84375 257.488281 L 127.339844 257.488281 L 74.089844 165.949219 L 127.339844 74.410156 L 233.84375 74.410156 Z M 287.09375 165.949219 " clip-rule="nonzero"/></clipPath><clipPath id="76c80cf7a0"><path d="M 287.09375 165.949219 L 233.84375 257.488281 L 127.339844 257.488281 L 74.089844 165.949219 L 127.339844 74.410156 L 233.84375 74.410156 Z M 287.09375 165.949219 " clip-rule="nonzero"/></clipPath><clipPath id="989e5b1173"><path d="M 74.089844 74.410156 L 287.089844 74.410156 L 287.089844 257.488281 L 74.089844 257.488281 Z M 74.089844 74.410156 " clip-rule="nonzero"/></clipPath><clipPath id="bd5f0eae19"><path d="M 287.09375 165.949219 L 233.84375 257.488281 L 127.339844 257.488281 L 74.089844 165.949219 L 127.339844 74.410156 L 233.84375 74.410156 Z M 287.09375 165.949219 " clip-rule="nonzero"/></clipPath><clipPath id="9e7293d284"><path d="M 102.941406 99.210938 L 258.246094 99.210938 L 258.246094 232.691406 L 102.941406 232.691406 Z M 102.941406 99.210938 " clip-rule="nonzero"/></clipPath><clipPath id="3fb94ae43b"><path d="M 258.242188 165.949219 L 219.414062 232.691406 L 141.765625 232.691406 L 102.941406 165.949219 L 141.765625 99.210938 L 219.414062 99.210938 Z M 258.242188 165.949219 " clip-rule="nonzero"/></clipPath><clipPath id="bf9170c7a3"><path d="M 258.242188 165.949219 L 219.414062 232.691406 L 141.765625 232.691406 L 102.941406 165.949219 L 141.765625 99.210938 L 219.414062 99.210938 Z M 258.242188 165.949219 " clip-rule="nonzero"/></clipPath><clipPath id="0f4db093eb"><path d="M 161.472656 110.066406 L 199.777344 110.066406 L 199.777344 221.867188 L 161.472656 221.867188 Z M 161.472656 110.066406 " clip-rule="nonzero"/></clipPath><clipPath id="8c23eb900d"><path d="M 189.199219 110.066406 L 199.675781 112.726562 L 171.984375 221.835938 L 161.503906 219.175781 Z M 189.199219 110.066406 " clip-rule="nonzero"/></clipPath><clipPath id="91a2ddfd00"><path d="M 189.199219 110.066406 L 199.675781 112.726562 L 171.984375 221.835938 L 161.503906 219.175781 Z M 189.199219 110.066406 " clip-rule="nonzero"/></clipPath><clipPath id="d7664b40e7"><path d="M 120.777344 116.335938 L 333.78125 116.335938 L 333.78125 299.417969 L 120.777344 299.417969 Z M 120.777344 116.335938 " clip-rule="nonzero"/></clipPath><clipPath id="24556f99ad"><path d="M 333.78125 207.878906 L 280.53125 299.417969 L 174.027344 299.417969 L 120.777344 207.878906 L 174.027344 116.335938 L 280.53125 116.335938 Z M 333.78125 207.878906 " clip-rule="nonzero"/></clipPath><clipPath id="cd0736174c"><path d="M 333.78125 207.878906 L 280.53125 299.417969 L 174.027344 299.417969 L 120.777344 207.878906 L 174.027344 116.335938 L 280.53125 116.335938 Z M 333.78125 207.878906 " clip-rule="nonzero"/></clipPath><clipPath id="96e00ffa9a"><path d="M 149.632812 141.136719 L 304.933594 141.136719 L 304.933594 274.621094 L 149.632812 274.621094 Z M 149.632812 141.136719 " clip-rule="nonzero"/></clipPath><clipPath id="26a3dc7260"><path d="M 304.929688 207.878906 L 266.105469 274.621094 L 188.457031 274.621094 L 149.632812 207.878906 L 188.457031 141.136719 L 266.105469 141.136719 Z M 304.929688 207.878906 " clip-rule="nonzero"/></clipPath><clipPath id="e244ad3ac9"><path d="M 304.929688 207.878906 L 266.105469 274.621094 L 188.457031 274.621094 L 149.632812 207.878906 L 188.457031 141.136719 L 266.105469 141.136719 Z M 304.929688 207.878906 " clip-rule="nonzero"/></clipPath><clipPath id="42db499e3f"><path d="M 110.792969 111.113281 L 323.792969 111.113281 L 323.792969 294.191406 L 110.792969 294.191406 Z M 110.792969 111.113281 " clip-rule="nonzero"/></clipPath><clipPath id="11e711bded"><path d="M 323.796875 202.652344 L 270.546875 294.191406 L 164.042969 294.191406 L 110.792969 202.652344 L 164.042969 111.113281 L 270.546875 111.113281 Z M 323.796875 202.652344 " clip-rule="nonzero"/></clipPath><clipPath id="e8ae4d6906"><path d="M 323.796875 202.652344 L 270.546875 294.191406 L 164.042969 294.191406 L 110.792969 202.652344 L 164.042969 111.113281 L 270.546875 111.113281 Z M 323.796875 202.652344 " clip-rule="nonzero"/></clipPath><clipPath id="9ebefbbaf3"><path d="M 110.792969 111.113281 L 323.792969 111.113281 L 323.792969 294.191406 L 110.792969 294.191406 Z M 110.792969 111.113281 " clip-rule="nonzero"/></clipPath><clipPath id="03f789a9c5"><path d="M 323.796875 202.652344 L 270.546875 294.191406 L 164.042969 294.191406 L 110.792969 202.652344 L 164.042969 111.113281 L 270.546875 111.113281 Z M 323.796875 202.652344 " clip-rule="nonzero"/></clipPath><clipPath id="c87cc72bbd"><path d="M 139.644531 135.910156 L 294.949219 135.910156 L 294.949219 269.394531 L 139.644531 269.394531 Z M 139.644531 135.910156 " clip-rule="nonzero"/></clipPath><clipPath id="8f4c001fbe"><path d="M 294.941406 202.652344 L 256.117188 269.394531 L 178.46875 269.394531 L 139.644531 202.652344 L 178.46875 135.910156 L 256.117188 135.910156 Z M 294.941406 202.652344 " clip-rule="nonzero"/></clipPath><clipPath id="e8d6b0738f"><path d="M 294.941406 202.652344 L 256.117188 269.394531 L 178.46875 269.394531 L 139.644531 202.652344 L 178.46875 135.910156 L 256.117188 135.910156 Z M 294.941406 202.652344 " clip-rule="nonzero"/></clipPath><clipPath id="8cf6bd1266"><path d="M 198.175781 146.765625 L 236.480469 146.765625 L 236.480469 258.570312 L 198.175781 258.570312 Z M 198.175781 146.765625 " clip-rule="nonzero"/></clipPath><clipPath id="635125ab24"><path d="M 225.902344 146.765625 L 236.378906 149.429688 L 208.6875 258.539062 L 198.207031 255.875 Z M 225.902344 146.765625 " clip-rule="nonzero"/></clipPath><clipPath id="48f6b13591"><path d="M 225.902344 146.765625 L 236.378906 149.429688 L 208.6875 258.539062 L 198.207031 255.875 Z M 225.902344 146.765625 " clip-rule="nonzero"/></clipPath><clipPath id="2e8aa3d3ef"><rect x="0" width="334" y="0" height="300"/></clipPath></defs><g clip-path="url(#737eeef136)"><g transform="matrix(1, 0, 0, 1, 0, 0.000000000000000555)"><g clip-path="url(#2e8aa3d3ef)"><g clip-path="url(#fafe31dda1)"><g clip-path="url(#42c992660a)"><g clip-path="url(#196dff3d39)"><path fill="#000000" d="M 10.671875 6.230469 L 223.753906 6.230469 L 223.753906 189.308594 L 10.671875 189.308594 Z M 10.671875 6.230469 " fill-opacity="1" fill-rule="nonzero"/></g></g></g><g clip-path="url(#c9d1367d48)"><g clip-path="url(#722e255da7)"><g clip-path="url(#d556da26d8)"><path fill="#faa500" d="M 39.523438 31.03125 L 194.878906 31.03125 L 194.878906 164.511719 L 39.523438 164.511719 Z M 39.523438 31.03125 " fill-opacity="1" fill-rule="nonzero"/></g></g></g><g clip-path="url(#dfcc025885)"><g clip-path="url(#ecb12ed81a)"><g clip-path="url(#c8effe0171)"><path fill="#000000" d="M 47.371094 42.933594 L 260.457031 42.933594 L 260.457031 226.011719 L 47.371094 226.011719 Z M 47.371094 42.933594 " fill-opacity="1" fill-rule="nonzero"/></g></g></g><g clip-path="url(#51ca96718b)"><g clip-path="url(#79c44fdc22)"><g clip-path="url(#135e9538aa)"><path fill="#faa500" d="M 76.226562 67.730469 L 231.582031 67.730469 L 231.582031 201.214844 L 76.226562 201.214844 Z M 76.226562 67.730469 " fill-opacity="1" fill-rule="nonzero"/></g></g></g><g clip-path="url(#7009f978e6)"><g clip-path="url(#985432576a)"><g clip-path="url(#152cbecf3f)"><path fill="#000000" d="M 84.074219 79.632812 L 297.15625 79.632812 L 297.15625 262.714844 L 84.074219 262.714844 Z M 84.074219 79.632812 " fill-opacity="1" fill-rule="nonzero"/></g></g></g><g clip-path="url(#ab9f671e13)"><g clip-path="url(#8aa614d175)"><g clip-path="url(#1e6ecdf1db)"><path fill="#faa500" d="M 112.929688 104.433594 L 268.285156 104.433594 L 268.285156 237.917969 L 112.929688 237.917969 Z M 112.929688 104.433594 " fill-opacity="1" fill-rule="nonzero"/></g></g></g><g clip-path="url(#cc2a2926b1)"><g clip-path="url(#ee9f1a870f)"><g clip-path="url(#df301af2fd)"><path fill="#faa500" d="M 0.683594 1.003906 L 213.765625 1.003906 L 213.765625 184.085938 L 0.683594 184.085938 Z M 0.683594 1.003906 " fill-opacity="1" fill-rule="nonzero"/></g></g></g><g clip-path="url(#d5d63b9af3)"><g clip-path="url(#99448a16fa)"><path stroke-linecap="butt" transform="matrix(0.426007, 0, 0, 0.426079, 0.684515, 1.004436)" fill="none" stroke-linejoin="miter" d="M 499.998623 214.839482 L 375.000719 429.689376 L 124.995742 429.689376 L -0.00216162 214.839482 L 124.995742 -0.0012434 L 375.000719 -0.0012434 Z M 499.998623 214.839482 " stroke="#ffbf47" stroke-width="20" stroke-opacity="1" stroke-miterlimit="4"/></g></g><g clip-path="url(#fb9dac919b)"><g clip-path="url(#3419b016eb)"><g clip-path="url(#e00cd06d14)"><path fill="#000000" d="M 29.539062 25.804688 L 184.894531 25.804688 L 184.894531 159.285156 L 29.539062 159.285156 Z M 29.539062 25.804688 " fill-opacity="1" fill-rule="nonzero"/></g></g></g><path fill="#faa500" d="M 110.597656 140.550781 C 102.378906 140.550781 95.136719 138.84375 88.875 135.429688 C 82.609375 132.011719 77.707031 126.875 74.164062 120.023438 C 70.625 113.167969 68.855469 104.710938 68.855469 94.660156 C 68.855469 84.613281 70.625 76.164062 74.164062 69.3125 C 77.707031 62.457031 82.609375 57.316406 88.875 53.898438 C 95.136719 50.480469 102.378906 48.765625 110.597656 48.765625 C 119.179688 48.765625 126.46875 50.449219 132.464844 53.808594 C 138.46875 57.164062 142.75 62.277344 145.308594 69.152344 L 132.4375 77.019531 L 130.910156 76.96875 C 129 72.328125 126.40625 69 123.132812 66.992188 C 119.859375 64.980469 115.683594 63.96875 110.597656 63.96875 C 103.191406 63.96875 97.410156 66.421875 93.265625 71.320312 C 89.117188 76.226562 87.042969 84.003906 87.042969 94.660156 C 87.042969 105.28125 89.117188 113.042969 93.265625 117.941406 C 97.410156 122.847656 103.191406 125.296875 110.597656 125.296875 C 122.191406 125.296875 129.285156 119.664062 131.886719 108.394531 L 133.417969 108.394531 L 146.410156 115.167969 C 143.96875 123.628906 139.796875 129.972656 133.894531 134.203125 C 128 138.4375 120.234375 140.550781 110.597656 140.550781 Z M 110.597656 140.550781 " fill-opacity="1" fill-rule="nonzero"/><g clip-path="url(#c56ebca1a3)"><g clip-path="url(#c0f3b33d8a)"><g clip-path="url(#06a63742a1)"><path fill="#faa500" d="M 115.792969 36.660156 L 126.269531 39.320312 L 98.578125 148.429688 L 88.097656 145.769531 Z M 115.792969 36.660156 " fill-opacity="1" fill-rule="nonzero"/></g></g></g><g clip-path="url(#ff0101cfcd)"><g clip-path="url(#d7fe182257)"><g clip-path="url(#51a3da0020)"><path fill="#faa500" d="M 37.386719 37.707031 L 250.46875 37.707031 L 250.46875 220.789062 L 37.386719 220.789062 Z M 37.386719 37.707031 " fill-opacity="1" fill-rule="nonzero"/></g></g></g><g clip-path="url(#bb979f345c)"><g clip-path="url(#af1470c829)"><path stroke-linecap="butt" transform="matrix(0.426007, 0, 0, 0.426079, 37.387105, 37.707025)" fill="none" stroke-linejoin="miter" d="M 499.999877 214.840739 L 375.001973 429.690633 L 124.996997 429.690633 L -0.000907191 214.840739 L 124.996997 0.0000138075 L 375.001973 0.0000138075 Z M 499.999877 214.840739 " stroke="#ffbf47" stroke-width="20" stroke-opacity="1" stroke-miterlimit="4"/></g></g><g clip-path="url(#9490a11cd0)"><g clip-path="url(#24f6ffa26c)"><g clip-path="url(#b72311f633)"><path fill="#000000" d="M 66.238281 62.507812 L 221.597656 62.507812 L 221.597656 195.988281 L 66.238281 195.988281 Z M 66.238281 62.507812 " fill-opacity="1" fill-rule="nonzero"/></g></g></g><path fill="#faa500" d="M 147.300781 177.253906 C 139.082031 177.253906 131.839844 175.546875 125.578125 172.132812 C 119.3125 168.714844 114.40625 163.578125 110.867188 156.726562 C 107.328125 149.871094 105.558594 141.414062 105.558594 131.363281 C 105.558594 121.316406 107.328125 112.867188 110.867188 106.015625 C 114.40625 99.160156 119.3125 94.019531 125.578125 90.597656 C 131.839844 87.179688 139.082031 85.46875 147.300781 85.46875 C 155.882812 85.46875 163.171875 87.148438 169.167969 90.511719 C 175.171875 93.867188 179.453125 98.980469 182.011719 105.855469 L 169.140625 113.722656 L 167.613281 113.671875 C 165.703125 109.027344 163.109375 105.703125 159.835938 103.695312 C 156.5625 101.679688 152.386719 100.671875 147.300781 100.671875 C 139.890625 100.671875 134.113281 103.125 129.96875 108.023438 C 125.820312 112.925781 123.746094 120.707031 123.746094 131.363281 C 123.746094 141.984375 125.820312 149.746094 129.96875 154.644531 C 134.113281 159.550781 139.890625 162 147.300781 162 C 158.890625 162 165.988281 156.367188 168.589844 145.097656 L 170.117188 145.097656 L 183.113281 151.871094 C 180.671875 160.332031 176.5 166.675781 170.597656 170.90625 C 164.699219 175.136719 156.9375 177.253906 147.300781 177.253906 Z M 147.300781 177.253906 " fill-opacity="1" fill-rule="nonzero"/><g clip-path="url(#ccb2032092)"><g clip-path="url(#b35958db16)"><g clip-path="url(#6fa0f0eb3c)"><path fill="#faa500" d="M 152.496094 73.363281 L 162.972656 76.023438 L 135.28125 185.132812 L 124.800781 182.472656 Z M 152.496094 73.363281 " fill-opacity="1" fill-rule="nonzero"/></g></g></g><g clip-path="url(#7a4011b87a)"><g clip-path="url(#addaf0633e)"><g clip-path="url(#76c80cf7a0)"><path fill="#faa500" d="M 74.089844 74.410156 L 287.171875 74.410156 L 287.171875 257.488281 L 74.089844 257.488281 Z M 74.089844 74.410156 " fill-opacity="1" fill-rule="nonzero"/></g></g></g><g clip-path="url(#989e5b1173)"><g clip-path="url(#bd5f0eae19)"><path stroke-linecap="butt" transform="matrix(0.426007, 0, 0, 0.426079, 74.089688, 74.409606)" fill="none" stroke-linejoin="miter" d="M 500.001151 214.842017 L 375.003247 429.682743 L 124.99827 429.682743 L 0.000366564 214.842017 L 124.99827 0.00129185 L 375.003247 0.00129185 Z M 500.001151 214.842017 " stroke="#ffbf47" stroke-width="20" stroke-opacity="1" stroke-miterlimit="4"/></g></g><g clip-path="url(#9e7293d284)"><g clip-path="url(#3fb94ae43b)"><g clip-path="url(#bf9170c7a3)"><path fill="#000000" d="M 102.941406 99.210938 L 258.296875 99.210938 L 258.296875 232.691406 L 102.941406 232.691406 Z M 102.941406 99.210938 " fill-opacity="1" fill-rule="nonzero"/></g></g></g><path fill="#faa500" d="M 184.003906 213.957031 C 175.785156 213.957031 168.542969 212.25 162.277344 208.835938 C 156.015625 205.417969 151.109375 200.28125 147.566406 193.429688 C 144.03125 186.570312 142.261719 178.117188 142.261719 168.066406 C 142.261719 158.019531 144.03125 149.570312 147.566406 142.71875 C 151.109375 135.859375 156.015625 130.722656 162.277344 127.300781 C 168.542969 123.882812 175.785156 122.171875 184.003906 122.171875 C 192.582031 122.171875 199.871094 123.851562 205.871094 127.214844 C 211.871094 130.570312 216.15625 135.683594 218.714844 142.558594 L 205.84375 150.425781 L 204.316406 150.371094 C 202.40625 145.730469 199.8125 142.40625 196.535156 140.398438 C 193.265625 138.382812 189.089844 137.375 184.003906 137.375 C 176.59375 137.375 170.816406 139.828125 166.671875 144.726562 C 162.519531 149.628906 160.449219 157.410156 160.449219 168.066406 C 160.449219 178.6875 162.519531 186.449219 166.671875 191.347656 C 170.816406 196.25 176.59375 198.699219 184.003906 198.699219 C 195.59375 198.699219 202.691406 193.070312 205.292969 181.800781 L 206.820312 181.800781 L 219.816406 188.574219 C 217.375 197.035156 213.203125 203.378906 207.300781 207.609375 C 201.402344 211.839844 193.640625 213.957031 184.003906 213.957031 Z M 184.003906 213.957031 " fill-opacity="1" fill-rule="nonzero"/><g clip-path="url(#0f4db093eb)"><g clip-path="url(#8c23eb900d)"><g clip-path="url(#91a2ddfd00)"><path fill="#faa500" d="M 189.199219 110.066406 L 199.675781 112.726562 L 171.984375 221.835938 L 161.503906 219.175781 Z M 189.199219 110.066406 " fill-opacity="1" fill-rule="nonzero"/></g></g></g><g clip-path="url(#d7664b40e7)"><g clip-path="url(#24556f99ad)"><g clip-path="url(#cd0736174c)"><path fill="#000000" d="M 120.777344 116.335938 L 333.859375 116.335938 L 333.859375 299.417969 L 120.777344 299.417969 Z M 120.777344 116.335938 " fill-opacity="1" fill-rule="nonzero"/></g></g></g><g clip-path="url(#96e00ffa9a)"><g clip-path="url(#26a3dc7260)"><g clip-path="url(#e244ad3ac9)"><path fill="#faa500" d="M 149.632812 141.136719 L 304.988281 141.136719 L 304.988281 274.621094 L 149.632812 274.621094 Z M 149.632812 141.136719 " fill-opacity="1" fill-rule="nonzero"/></g></g></g><g clip-path="url(#42db499e3f)"><g clip-path="url(#11e711bded)"><g clip-path="url(#e8ae4d6906)"><path fill="#faa500" d="M 110.792969 111.113281 L 323.875 111.113281 L 323.875 294.191406 L 110.792969 294.191406 Z M 110.792969 111.113281 " fill-opacity="1" fill-rule="nonzero"/></g></g></g><g clip-path="url(#9ebefbbaf3)"><g clip-path="url(#03f789a9c5)"><path stroke-linecap="butt" transform="matrix(0.426007, 0, 0, 0.426079, 110.792271, 111.112192)" fill="none" stroke-linejoin="miter" d="M 500.002421 214.843282 L 375.004518 429.684008 L 124.999541 429.684008 L 0.00163694 214.843282 L 124.999541 0.00255639 L 375.004518 0.00255639 Z M 500.002421 214.843282 " stroke="#ffbf47" stroke-width="20" stroke-opacity="1" stroke-miterlimit="4"/></g></g><g clip-path="url(#c87cc72bbd)"><g clip-path="url(#8f4c001fbe)"><g clip-path="url(#e8d6b0738f)"><path fill="#000000" d="M 139.644531 135.910156 L 295 135.910156 L 295 269.394531 L 139.644531 269.394531 Z M 139.644531 135.910156 " fill-opacity="1" fill-rule="nonzero"/></g></g></g><path fill="#faa500" d="M 220.707031 250.660156 C 212.484375 250.660156 205.242188 248.953125 198.980469 245.539062 C 192.71875 242.121094 187.8125 236.984375 184.269531 230.132812 C 180.734375 223.273438 178.964844 214.820312 178.964844 204.765625 C 178.964844 194.722656 180.734375 186.273438 184.269531 179.421875 C 187.8125 172.5625 192.71875 167.425781 198.980469 164.003906 C 205.242188 160.585938 212.484375 158.875 220.707031 158.875 C 229.285156 158.875 236.574219 160.554688 242.574219 163.914062 C 248.574219 167.273438 252.859375 172.386719 255.417969 179.261719 L 242.546875 187.128906 L 241.015625 187.074219 C 239.109375 182.433594 236.515625 179.109375 233.238281 177.101562 C 229.96875 175.085938 225.789062 174.078125 220.707031 174.078125 C 213.296875 174.078125 207.519531 176.527344 203.371094 181.429688 C 199.222656 186.332031 197.152344 194.113281 197.152344 204.765625 C 197.152344 215.390625 199.222656 223.148438 203.371094 228.050781 C 207.519531 232.953125 213.296875 235.402344 220.707031 235.402344 C 232.296875 235.402344 239.394531 229.769531 241.996094 218.503906 L 243.523438 218.503906 L 256.519531 225.277344 C 254.078125 233.738281 249.90625 240.078125 244.003906 244.3125 C 238.105469 248.542969 230.34375 250.660156 220.707031 250.660156 Z M 220.707031 250.660156 " fill-opacity="1" fill-rule="nonzero"/><g clip-path="url(#8cf6bd1266)"><g clip-path="url(#635125ab24)"><g clip-path="url(#48f6b13591)"><path fill="#faa500" d="M 225.902344 146.765625 L 236.378906 149.429688 L 208.6875 258.539062 L 198.207031 255.875 Z M 225.902344 146.765625 " fill-opacity="1" fill-rule="nonzero"/></g></g></g></g></g></g></svg>