<svg xmlns="http://www.w3.org/2000/svg" xmlns:xlink="http://www.w3.org/1999/xlink" width="446" zoomAndPan="magnify" viewBox="0 0 334.5 299.999988" height="400" preserveAspectRatio="xMidYMid meet" version="1.0"><defs><clipPath id="d003365db2"><path d="M 0 0.222656 L 334 0.222656 L 334 299.773438 L 0 299.773438 Z M 0 0.222656 " clip-rule="nonzero"/></clipPath><clipPath id="d2b4edc62c"><path d="M 11 6 L 308 6 L 308 298 L 11 298 Z M 11 6 " clip-rule="nonzero"/></clipPath><clipPath id="13b3ee40c3"><path d="M 41.949219 -11.738281 L 338.757812 60.390625 L 276.710938 315.710938 L -20.097656 243.582031 Z M 41.949219 -11.738281 " clip-rule="nonzero"/></clipPath><clipPath id="abb78cf292"><path d="M 41.949219 -11.738281 L 338.757812 60.390625 L 276.710938 315.710938 L -20.097656 243.582031 Z M 41.949219 -11.738281 " clip-rule="nonzero"/></clipPath><clipPath id="4bf5eebd5f"><path d="M 41.949219 -11.738281 L 338.757812 60.390625 L 276.710938 315.710938 L -20.097656 243.582031 Z M 41.949219 -11.738281 " clip-rule="nonzero"/></clipPath><clipPath id="623bcac0e9"><path d="M 42.152344 -11.578125 L 338.5 60.4375 L 276.597656 315.152344 L -19.746094 243.136719 Z M 42.152344 -11.578125 " clip-rule="nonzero"/></clipPath><clipPath id="fbdf65eaba"><path d="M 307.550781 187.796875 L 202.515625 297.148438 L 54.339844 261.140625 L 11.203125 115.78125 L 116.242188 6.425781 L 264.414062 42.433594 Z M 307.550781 187.796875 " clip-rule="nonzero"/></clipPath><clipPath id="a3585bf3e1"><path d="M 42.152344 -11.578125 L 338.5 60.4375 L 276.597656 315.152344 L -19.746094 243.136719 Z M 42.152344 -11.578125 " clip-rule="nonzero"/></clipPath><clipPath id="f1fa98fd5a"><path d="M 307.550781 187.796875 L 202.515625 297.148438 L 54.339844 261.140625 L 11.203125 115.78125 L 116.242188 6.425781 L 264.414062 42.433594 Z M 307.550781 187.796875 " clip-rule="nonzero"/></clipPath><clipPath id="ef9a03074e"><path d="M 51 45 L 268 45 L 268 258 L 51 258 Z M 51 45 " clip-rule="nonzero"/></clipPath><clipPath id="be5b896d59"><path d="M 41.949219 -11.738281 L 338.757812 60.390625 L 276.710938 315.710938 L -20.097656 243.582031 Z M 41.949219 -11.738281 " clip-rule="nonzero"/></clipPath><clipPath id="4f82860ed0"><path d="M 41.949219 -11.738281 L 338.757812 60.390625 L 276.710938 315.710938 L -20.097656 243.582031 Z M 41.949219 -11.738281 " clip-rule="nonzero"/></clipPath><clipPath id="d7ee625bb4"><path d="M 41.949219 -11.738281 L 338.757812 60.390625 L 276.710938 315.710938 L -20.097656 243.582031 Z M 41.949219 -11.738281 " clip-rule="nonzero"/></clipPath><clipPath id="a30b686908"><path d="M 73.910156 32.679688 L 289.980469 85.1875 L 244.851562 270.898438 L 28.78125 218.390625 Z M 73.910156 32.679688 " clip-rule="nonzero"/></clipPath><clipPath id="e3d2fc52f1"><path d="M 267.410156 178.042969 L 190.828125 257.773438 L 82.796875 231.519531 L 51.347656 125.535156 L 127.925781 45.808594 L 235.957031 72.058594 Z M 267.410156 178.042969 " clip-rule="nonzero"/></clipPath><clipPath id="ab77c855b0"><path d="M 73.910156 32.679688 L 289.980469 85.1875 L 244.851562 270.898438 L 28.78125 218.390625 Z M 73.910156 32.679688 " clip-rule="nonzero"/></clipPath><clipPath id="e161a499b9"><path d="M 267.410156 178.042969 L 190.828125 257.773438 L 82.796875 231.519531 L 51.347656 125.535156 L 127.925781 45.808594 L 235.957031 72.058594 Z M 267.410156 178.042969 " clip-rule="nonzero"/></clipPath><clipPath id="3461e13018"><path d="M 26 2 L 323 2 L 323 294 L 26 294 Z M 26 2 " clip-rule="nonzero"/></clipPath><clipPath id="d8b3c13b98"><path d="M 57.214844 -15.726562 L 354.023438 56.402344 L 291.976562 311.71875 L -4.828125 239.589844 Z M 57.214844 -15.726562 " clip-rule="nonzero"/></clipPath><clipPath id="506a61db18"><path d="M 57.214844 -15.726562 L 354.023438 56.402344 L 291.976562 311.71875 L -4.828125 239.589844 Z M 57.214844 -15.726562 " clip-rule="nonzero"/></clipPath><clipPath id="03670e6cac"><path d="M 57.214844 -15.726562 L 354.023438 56.402344 L 291.976562 311.71875 L -4.828125 239.589844 Z M 57.214844 -15.726562 " clip-rule="nonzero"/></clipPath><clipPath id="fd7e413245"><path d="M 57.421875 -15.566406 L 353.765625 56.449219 L 291.867188 311.164062 L -4.480469 239.148438 Z M 57.421875 -15.566406 " clip-rule="nonzero"/></clipPath><clipPath id="6da5f52fd4"><path d="M 322.820312 183.808594 L 217.78125 293.160156 L 69.609375 257.152344 L 26.46875 111.789062 L 131.507812 2.4375 L 279.683594 38.445312 Z M 322.820312 183.808594 " clip-rule="nonzero"/></clipPath><clipPath id="38c2f79f22"><path d="M 57.421875 -15.566406 L 353.765625 56.449219 L 291.867188 311.164062 L -4.480469 239.148438 Z M 57.421875 -15.566406 " clip-rule="nonzero"/></clipPath><clipPath id="614540bd19"><path d="M 322.820312 183.808594 L 217.78125 293.160156 L 69.609375 257.152344 L 26.46875 111.789062 L 131.507812 2.4375 L 279.683594 38.445312 Z M 322.820312 183.808594 " clip-rule="nonzero"/></clipPath><clipPath id="1d4ac820da"><path d="M 26 2 L 323 2 L 323 294 L 26 294 Z M 26 2 " clip-rule="nonzero"/></clipPath><clipPath id="7b82f3d5cf"><path d="M 57.214844 -15.726562 L 354.023438 56.402344 L 291.976562 311.71875 L -4.828125 239.589844 Z M 57.214844 -15.726562 " clip-rule="nonzero"/></clipPath><clipPath id="beefa2056c"><path d="M 57.214844 -15.726562 L 354.023438 56.402344 L 291.976562 311.71875 L -4.828125 239.589844 Z M 57.214844 -15.726562 " clip-rule="nonzero"/></clipPath><clipPath id="949a937bc2"><path d="M 57.214844 -15.726562 L 354.023438 56.402344 L 291.976562 311.71875 L -4.828125 239.589844 Z M 57.214844 -15.726562 " clip-rule="nonzero"/></clipPath><clipPath id="ce8412de7d"><path d="M 57.421875 -15.566406 L 353.765625 56.449219 L 291.867188 311.164062 L -4.480469 239.148438 Z M 57.421875 -15.566406 " clip-rule="nonzero"/></clipPath><clipPath id="be906cec8b"><path d="M 322.820312 183.808594 L 217.78125 293.160156 L 69.609375 257.152344 L 26.46875 111.789062 L 131.507812 2.4375 L 279.683594 38.445312 Z M 322.820312 183.808594 " clip-rule="nonzero"/></clipPath><clipPath id="881988dce2"><path d="M 66 41 L 283 41 L 283 254 L 66 254 Z M 66 41 " clip-rule="nonzero"/></clipPath><clipPath id="8c4e94ec7f"><path d="M 57.214844 -15.726562 L 354.023438 56.402344 L 291.976562 311.71875 L -4.828125 239.589844 Z M 57.214844 -15.726562 " clip-rule="nonzero"/></clipPath><clipPath id="1dc6e1dc9f"><path d="M 57.214844 -15.726562 L 354.023438 56.402344 L 291.976562 311.71875 L -4.828125 239.589844 Z M 57.214844 -15.726562 " clip-rule="nonzero"/></clipPath><clipPath id="bbd9b1a6fd"><path d="M 57.214844 -15.726562 L 354.023438 56.402344 L 291.976562 311.71875 L -4.828125 239.589844 Z M 57.214844 -15.726562 " clip-rule="nonzero"/></clipPath><clipPath id="d29d163f53"><path d="M 89.179688 28.691406 L 305.246094 81.199219 L 260.117188 266.910156 L 44.046875 214.402344 Z M 89.179688 28.691406 " clip-rule="nonzero"/></clipPath><clipPath id="796ac7bc4a"><path d="M 282.675781 174.050781 L 206.09375 253.785156 L 98.0625 227.53125 L 66.613281 121.546875 L 143.195312 41.820312 L 251.226562 68.070312 Z M 282.675781 174.050781 " clip-rule="nonzero"/></clipPath><clipPath id="e4e26b8b84"><path d="M 89.179688 28.691406 L 305.246094 81.199219 L 260.117188 266.910156 L 44.046875 214.402344 Z M 89.179688 28.691406 " clip-rule="nonzero"/></clipPath><clipPath id="458ce5384c"><path d="M 282.675781 174.050781 L 206.09375 253.785156 L 98.0625 227.53125 L 66.613281 121.546875 L 143.195312 41.820312 L 251.226562 68.070312 Z M 282.675781 174.050781 " clip-rule="nonzero"/></clipPath><clipPath id="e5ff6fb4ca"><path d="M 117 85 L 236 85 L 236 218 L 117 218 Z M 117 85 " clip-rule="nonzero"/></clipPath><clipPath id="b0c9ebe089"><path d="M 57.214844 -15.726562 L 354.023438 56.402344 L 291.976562 311.71875 L -4.828125 239.589844 Z M 57.214844 -15.726562 " clip-rule="nonzero"/></clipPath><clipPath id="7736c73804"><path d="M 57.214844 -15.726562 L 354.023438 56.402344 L 291.976562 311.71875 L -4.828125 239.589844 Z M 57.214844 -15.726562 " clip-rule="nonzero"/></clipPath><clipPath id="0a765de72a"><path d="M 57.214844 -15.726562 L 354.023438 56.402344 L 291.976562 311.71875 L -4.828125 239.589844 Z M 57.214844 -15.726562 " clip-rule="nonzero"/></clipPath><clipPath id="e05272b185"><path d="M 130 72 L 220 72 L 220 223 L 130 223 Z M 130 72 " clip-rule="nonzero"/></clipPath><clipPath id="cb71defec9"><path d="M 57.214844 -15.726562 L 354.023438 56.402344 L 291.976562 311.71875 L -4.828125 239.589844 Z M 57.214844 -15.726562 " clip-rule="nonzero"/></clipPath><clipPath id="f37064850f"><path d="M 57.214844 -15.726562 L 354.023438 56.402344 L 291.976562 311.71875 L -4.828125 239.589844 Z M 57.214844 -15.726562 " clip-rule="nonzero"/></clipPath><clipPath id="94a016aa4b"><path d="M 57.214844 -15.726562 L 354.023438 56.402344 L 291.976562 311.71875 L -4.828125 239.589844 Z M 57.214844 -15.726562 " clip-rule="nonzero"/></clipPath><clipPath id="1b428772e4"><path d="M 166.382812 62.792969 L 220.996094 76.066406 L 182.90625 232.804688 L 128.292969 219.535156 Z M 166.382812 62.792969 " clip-rule="nonzero"/></clipPath><clipPath id="0749fb104f"><path d="M 205.515625 72.957031 L 219.191406 80.203125 L 143.777344 222.640625 L 130.09375 215.394531 Z M 205.515625 72.957031 " clip-rule="nonzero"/></clipPath><clipPath id="a6faf5ef54"><path d="M 166.9375 63.582031 L 220.234375 76.535156 L 182.433594 232.085938 L 129.136719 219.132812 Z M 166.9375 63.582031 " clip-rule="nonzero"/></clipPath><clipPath id="6adf8d3915"><path d="M 205.515625 72.957031 L 219.191406 80.203125 L 143.777344 222.640625 L 130.09375 215.394531 Z M 205.515625 72.957031 " clip-rule="nonzero"/></clipPath><clipPath id="3ea2672236"><rect x="0" width="334" y="0" height="300"/></clipPath></defs><g clip-path="url(#d003365db2)"><g transform="matrix(1, 0, 0, 1, 0, 0.000000000000000555)"><g clip-path="url(#3ea2672236)"><g clip-path="url(#d2b4edc62c)"><g clip-path="url(#13b3ee40c3)"><g clip-path="url(#abb78cf292)"><g clip-path="url(#4bf5eebd5f)"><g clip-path="url(#623bcac0e9)"><g clip-path="url(#fbdf65eaba)"><g clip-path="url(#a3585bf3e1)"><g clip-path="url(#f1fa98fd5a)"><path fill="#000000" d="M 42.152344 -11.578125 L 338.609375 60.464844 L 276.710938 315.179688 L -19.746094 243.136719 Z M 42.152344 -11.578125 " fill-opacity="1" fill-rule="nonzero"/></g></g></g></g></g></g></g></g><g clip-path="url(#ef9a03074e)"><g clip-path="url(#be5b896d59)"><g clip-path="url(#4f82860ed0)"><g clip-path="url(#d7ee625bb4)"><g clip-path="url(#a30b686908)"><g clip-path="url(#e3d2fc52f1)"><g clip-path="url(#ab77c855b0)"><g clip-path="url(#e161a499b9)"><path fill="#faa500" d="M 73.910156 32.679688 L 290.054688 85.207031 L 244.925781 270.917969 L 28.78125 218.390625 Z M 73.910156 32.679688 " fill-opacity="1" fill-rule="nonzero"/></g></g></g></g></g></g></g></g><g clip-path="url(#3461e13018)"><g clip-path="url(#d8b3c13b98)"><g clip-path="url(#506a61db18)"><g clip-path="url(#03670e6cac)"><g clip-path="url(#fd7e413245)"><g clip-path="url(#6da5f52fd4)"><g clip-path="url(#38c2f79f22)"><g clip-path="url(#614540bd19)"><path fill="#faa500" d="M 57.421875 -15.566406 L 353.878906 56.476562 L 291.976562 311.191406 L -4.480469 239.148438 Z M 57.421875 -15.566406 " fill-opacity="1" fill-rule="nonzero"/></g></g></g></g></g></g></g></g><g clip-path="url(#1d4ac820da)"><g clip-path="url(#7b82f3d5cf)"><g clip-path="url(#beefa2056c)"><g clip-path="url(#949a937bc2)"><g clip-path="url(#ce8412de7d)"><g clip-path="url(#be906cec8b)"><path stroke-linecap="butt" transform="matrix(0.592694, 0.144034, -0.144058, 0.592794, 57.420941, -15.566945)" fill="none" stroke-linejoin="miter" d="M 500.003589 214.843654 L 374.999126 429.684676 L 125.002168 429.685102 L -0.00428646 214.841307 L 125.000176 0.000284044 L 375.003357 -0.00165331 Z M 500.003589 214.843654 " stroke="#ffbf47" stroke-width="20" stroke-opacity="1" stroke-miterlimit="4"/></g></g></g></g></g></g><g clip-path="url(#881988dce2)"><g clip-path="url(#8c4e94ec7f)"><g clip-path="url(#1dc6e1dc9f)"><g clip-path="url(#bbd9b1a6fd)"><g clip-path="url(#d29d163f53)"><g clip-path="url(#796ac7bc4a)"><g clip-path="url(#e4e26b8b84)"><g clip-path="url(#458ce5384c)"><path fill="#000000" d="M 89.179688 28.691406 L 305.320312 81.21875 L 260.191406 266.929688 L 44.046875 214.402344 Z M 89.179688 28.691406 " fill-opacity="1" fill-rule="nonzero"/></g></g></g></g></g></g></g></g><g clip-path="url(#e5ff6fb4ca)"><g clip-path="url(#b0c9ebe089)"><g clip-path="url(#7736c73804)"><g clip-path="url(#0a765de72a)"><path fill="#faa500" d="M 163.160156 215.746094 C 151.722656 212.964844 142.226562 208.140625 134.667969 201.273438 C 127.105469 194.402344 122.019531 185.597656 119.410156 174.863281 C 116.804688 164.128906 117.203125 151.769531 120.601562 137.78125 C 124 123.804688 129.316406 112.648438 136.554688 104.3125 C 143.800781 95.96875 152.363281 90.480469 162.234375 87.839844 C 172.101562 85.199219 182.757812 85.265625 194.191406 88.046875 C 206.128906 90.949219 215.703125 95.75 222.910156 102.453125 C 230.128906 109.152344 234.355469 117.714844 235.59375 128.144531 L 215.027344 134.738281 L 212.917969 134.148438 C 211.832031 127.046875 209.347656 121.542969 205.46875 117.640625 C 201.597656 113.734375 196.128906 110.917969 189.054688 109.199219 C 178.746094 106.691406 169.878906 108.148438 162.453125 113.566406 C 155.023438 118.984375 149.507812 129.105469 145.90625 143.929688 C 142.3125 158.710938 142.574219 170.207031 146.6875 178.429688 C 150.800781 186.652344 158.011719 192.015625 168.320312 194.519531 C 184.445312 198.4375 196.222656 193 203.652344 178.203125 L 205.777344 178.71875 L 221.570312 192.539062 C 215.3125 203.484375 207.363281 210.898438 197.71875 214.789062 C 188.085938 218.683594 176.566406 219.003906 163.160156 215.746094 Z M 163.160156 215.746094 " fill-opacity="1" fill-rule="nonzero"/></g></g></g></g><g clip-path="url(#e05272b185)"><g clip-path="url(#cb71defec9)"><g clip-path="url(#f37064850f)"><g clip-path="url(#94a016aa4b)"><g clip-path="url(#1b428772e4)"><g clip-path="url(#0749fb104f)"><g clip-path="url(#a6faf5ef54)"><g clip-path="url(#6adf8d3915)"><path fill="#faa500" d="M 205.515625 72.957031 L 219.191406 80.203125 L 143.777344 222.640625 L 130.09375 215.394531 Z M 205.515625 72.957031 " fill-opacity="1" fill-rule="nonzero"/></g></g></g></g></g></g></g></g></g></g></g></svg>