<svg xmlns="http://www.w3.org/2000/svg" xmlns:xlink="http://www.w3.org/1999/xlink" width="500" zoomAndPan="magnify" viewBox="0 0 375 322.499991" height="430" preserveAspectRatio="xMidYMid meet" version="1.0"><defs><g/><clipPath id="be474162aa"><path d="M 0.289062 0.117188 L 374.707031 0.117188 L 374.707031 321.882812 L 0.289062 321.882812 Z M 0.289062 0.117188 " clip-rule="nonzero"/></clipPath><clipPath id="2ac710377c"><path d="M 374.710938 161 L 281.105469 321.882812 L 93.894531 321.882812 L 0.289062 161 L 93.894531 0.117188 L 281.105469 0.117188 Z M 374.710938 161 " clip-rule="nonzero"/></clipPath><clipPath id="d3a1ef549a"><path d="M 0.289062 0.117188 L 374.707031 0.117188 L 374.707031 321.882812 L 0.289062 321.882812 Z M 0.289062 0.117188 " clip-rule="nonzero"/></clipPath><clipPath id="6fe58bd5e8"><path d="M 374.710938 161 L 281.105469 321.882812 L 93.894531 321.882812 L 0.289062 161 L 93.894531 0.117188 L 281.105469 0.117188 Z M 374.710938 161 " clip-rule="nonzero"/></clipPath><clipPath id="2a43c345be"><rect x="0" width="375" y="0" height="322"/></clipPath><clipPath id="94676fd96c"><path d="M 51.007812 43.703125 L 324 43.703125 L 324 278.300781 L 51.007812 278.300781 Z M 51.007812 43.703125 " clip-rule="nonzero"/></clipPath><clipPath id="3e04a6f1af"><path d="M 323.992188 161 L 255.746094 278.300781 L 119.253906 278.300781 L 51.007812 161 L 119.253906 43.703125 L 255.746094 43.703125 Z M 323.992188 161 " clip-rule="nonzero"/></clipPath><clipPath id="70c76bf6c9"><path d="M 0.0078125 0.703125 L 273 0.703125 L 273 235.300781 L 0.0078125 235.300781 Z M 0.0078125 0.703125 " clip-rule="nonzero"/></clipPath><clipPath id="4e5e5bf280"><path d="M 272.992188 118 L 204.746094 235.300781 L 68.253906 235.300781 L 0.0078125 118 L 68.253906 0.703125 L 204.746094 0.703125 Z M 272.992188 118 " clip-rule="nonzero"/></clipPath><clipPath id="a1e1d2963a"><rect x="0" width="273" y="0" height="236"/></clipPath><clipPath id="08d2dfbcd9"><path d="M 153 62 L 222 62 L 222 260 L 153 260 Z M 153 62 " clip-rule="nonzero"/></clipPath><clipPath id="0eb2eb78b2"><path d="M 202.628906 62.78125 L 221.046875 67.460938 L 172.371094 259.21875 L 153.949219 254.542969 Z M 202.628906 62.78125 " clip-rule="nonzero"/></clipPath><clipPath id="309c25bcc2"><path d="M 0.890625 0.78125 L 68.226562 0.78125 L 68.226562 197.277344 L 0.890625 197.277344 Z M 0.890625 0.78125 " clip-rule="nonzero"/></clipPath><clipPath id="876bd59a44"><path d="M 49.628906 0.78125 L 68.046875 5.460938 L 19.371094 197.21875 L 0.949219 192.542969 Z M 49.628906 0.78125 " clip-rule="nonzero"/></clipPath><clipPath id="60ba5b81a8"><rect x="0" width="69" y="0" height="198"/></clipPath></defs><g clip-path="url(#be474162aa)"><g clip-path="url(#2ac710377c)"><g transform="matrix(1, 0, 0, 1, 0.000000000000000056, 0)"><g clip-path="url(#2a43c345be)"><g clip-path="url(#d3a1ef549a)"><g clip-path="url(#6fe58bd5e8)"><path fill="#faa500" d="M 0.289062 0.117188 L 374.847656 0.117188 L 374.847656 321.882812 L 0.289062 321.882812 Z M 0.289062 0.117188 " fill-opacity="1" fill-rule="nonzero"/></g></g></g></g><path stroke-linecap="butt" transform="matrix(0.748839, 0, 0, 0.748839, 0.290253, 0.117006)" fill="none" stroke-linejoin="miter" d="M 500.001579 214.843235 L 375.000787 429.686227 L 124.999202 429.686227 L -0.00159005 214.843235 L 124.999202 0.000242259 L 375.000787 0.000242259 Z M 500.001579 214.843235 " stroke="#ffbf47" stroke-width="20" stroke-opacity="1" stroke-miterlimit="4"/></g></g><g clip-path="url(#94676fd96c)"><g clip-path="url(#3e04a6f1af)"><g transform="matrix(1, 0, 0, 1, 51, 43)"><g clip-path="url(#a1e1d2963a)"><g clip-path="url(#70c76bf6c9)"><g clip-path="url(#4e5e5bf280)"><path fill="#000000" d="M 0.0078125 0.703125 L 273.09375 0.703125 L 273.09375 235.300781 L 0.0078125 235.300781 Z M 0.0078125 0.703125 " fill-opacity="1" fill-rule="nonzero"/></g></g></g></g></g></g><g fill="#faa500" fill-opacity="1"><g transform="translate(107.794933, 243.123076)"><g><path d="M 85.703125 2.25 C 71.253906 2.25 58.523438 -0.75 47.515625 -6.75 C 36.503906 -12.757812 27.882812 -21.785156 21.65625 -33.828125 C 15.4375 -45.878906 12.328125 -60.738281 12.328125 -78.40625 C 12.328125 -96.0625 15.4375 -110.910156 21.65625 -122.953125 C 27.882812 -135.003906 36.503906 -144.035156 47.515625 -150.046875 C 58.523438 -156.054688 71.253906 -159.0625 85.703125 -159.0625 C 100.785156 -159.0625 113.597656 -156.109375 124.140625 -150.203125 C 134.691406 -144.304688 142.21875 -135.316406 146.71875 -123.234375 L 124.09375 -109.40625 L 121.40625 -109.5 C 118.050781 -117.65625 113.492188 -123.5 107.734375 -127.03125 C 101.984375 -130.570312 94.640625 -132.34375 85.703125 -132.34375 C 72.679688 -132.34375 62.523438 -128.035156 55.234375 -119.421875 C 47.941406 -110.804688 44.296875 -97.132812 44.296875 -78.40625 C 44.296875 -59.738281 47.941406 -46.097656 55.234375 -37.484375 C 62.523438 -28.867188 72.679688 -24.5625 85.703125 -24.5625 C 106.078125 -24.5625 118.550781 -34.460938 123.125 -54.265625 L 125.8125 -54.265625 L 148.65625 -42.359375 C 144.363281 -27.492188 137.03125 -16.34375 126.65625 -8.90625 C 116.289062 -1.46875 102.640625 2.25 85.703125 2.25 Z M 85.703125 2.25 "/></g></g></g><g clip-path="url(#08d2dfbcd9)"><g clip-path="url(#0eb2eb78b2)"><g transform="matrix(1, 0, 0, 1, 153, 62)"><g clip-path="url(#60ba5b81a8)"><g clip-path="url(#309c25bcc2)"><g clip-path="url(#876bd59a44)"><path fill="#faa500" d="M 49.628906 0.78125 L 68.046875 5.460938 L 19.371094 197.21875 L 0.949219 192.542969 Z M 49.628906 0.78125 " fill-opacity="1" fill-rule="nonzero"/></g></g></g></g></g></g></svg>