<svg xmlns="http://www.w3.org/2000/svg" xmlns:xlink="http://www.w3.org/1999/xlink" width="500" zoomAndPan="magnify" viewBox="0 0 375 374.999991" height="500" preserveAspectRatio="xMidYMid meet" version="1.0"><defs><clipPath id="254d4762a9"><path d="M 180.703125 185.914062 L 184.960938 185.914062 L 184.960938 189.5625 L 180.703125 189.5625 Z M 180.703125 185.914062 " clip-rule="nonzero"/></clipPath><clipPath id="f7c1552d55"><path d="M 184.949219 187.199219 C 183.074219 190.199219 181.273438 189.675781 180.898438 189.074219 C 180.523438 188.398438 180.824219 186.601562 181.425781 186.074219 C 182.023438 185.625 184.425781 186.300781 184.425781 186.300781 " clip-rule="nonzero"/></clipPath><clipPath id="1b2738d559"><path d="M 0.703125 0.914062 L 4.960938 0.914062 L 4.960938 4.5625 L 0.703125 4.5625 Z M 0.703125 0.914062 " clip-rule="nonzero"/></clipPath><clipPath id="ce6f4d7c34"><path d="M 4.949219 2.199219 C 3.074219 5.199219 1.273438 4.675781 0.898438 4.074219 C 0.523438 3.398438 0.824219 1.601562 1.425781 1.074219 C 2.023438 0.625 4.425781 1.300781 4.425781 1.300781 " clip-rule="nonzero"/></clipPath><clipPath id="80e86e2d38"><rect x="0" width="5" y="0" height="5"/></clipPath></defs><path fill="#faa500" d="M 354.265625 166.765625 L 208.234375 166.765625 L 208.234375 20.734375 C 208.234375 9.257812 198.972656 0 187.5 0 C 176.027344 0 166.765625 9.257812 166.765625 20.734375 L 166.765625 166.765625 L 20.734375 166.765625 C 9.257812 166.765625 0 176.027344 0 187.5 C 0 198.972656 9.257812 208.234375 20.734375 208.234375 L 166.765625 208.234375 L 166.765625 354.265625 C 166.765625 365.742188 176.027344 375 187.5 375 C 198.972656 375 208.234375 365.742188 208.234375 354.265625 L 208.234375 208.234375 L 354.265625 208.234375 C 365.742188 208.234375 375 198.972656 375 187.5 C 375 176.027344 365.742188 166.765625 354.265625 166.765625 Z M 354.265625 166.765625 " fill-opacity="1" fill-rule="nonzero"/><g clip-path="url(#254d4762a9)"><g clip-path="url(#f7c1552d55)"><g transform="matrix(1, 0, 0, 1, 180, 185)"><g clip-path="url(#80e86e2d38)"><g clip-path="url(#1b2738d559)"><g clip-path="url(#ce6f4d7c34)"><rect x="-262.5" width="540" fill="#faa500" height="539.999987" y="-267.499998" fill-opacity="1"/></g></g></g></g></g></g></svg>