<svg xmlns="http://www.w3.org/2000/svg" xmlns:xlink="http://www.w3.org/1999/xlink" width="500" zoomAndPan="magnify" viewBox="0 0 375 322.499991" height="430" preserveAspectRatio="xMidYMid meet" version="1.0"><defs><clipPath id="82a338ce30"><path d="M 0.289062 0 L 374.707031 0 L 374.707031 322 L 0.289062 322 Z M 0.289062 0 " clip-rule="nonzero"/></clipPath><clipPath id="191d58d5f2"><path d="M 0.289062 0.117188 L 374.707031 0.117188 L 374.707031 321.882812 L 0.289062 321.882812 Z M 0.289062 0.117188 " clip-rule="nonzero"/></clipPath><clipPath id="c3d9de68cc"><path d="M 374.710938 161 L 281.105469 321.882812 L 93.894531 321.882812 L 0.289062 161 L 93.894531 0.117188 L 281.105469 0.117188 Z M 374.710938 161 " clip-rule="nonzero"/></clipPath><clipPath id="8f1ae11400"><path d="M 0.289062 0.117188 L 374.707031 0.117188 L 374.707031 321.882812 L 0.289062 321.882812 Z M 0.289062 0.117188 " clip-rule="nonzero"/></clipPath><clipPath id="1490543ba4"><path d="M 374.710938 161 L 281.105469 321.882812 L 93.894531 321.882812 L 0.289062 161 L 93.894531 0.117188 L 281.105469 0.117188 Z M 374.710938 161 " clip-rule="nonzero"/></clipPath><clipPath id="09a0e112ae"><rect x="0" width="375" y="0" height="322"/></clipPath><clipPath id="9939cdc192"><path d="M 51.007812 43.703125 L 324 43.703125 L 324 278.300781 L 51.007812 278.300781 Z M 51.007812 43.703125 " clip-rule="nonzero"/></clipPath><clipPath id="f54df2a4c1"><path d="M 323.992188 161 L 255.746094 278.300781 L 119.253906 278.300781 L 51.007812 161 L 119.253906 43.703125 L 255.746094 43.703125 Z M 323.992188 161 " clip-rule="nonzero"/></clipPath><clipPath id="bd9bc95196"><path d="M 0.0078125 0.703125 L 273 0.703125 L 273 235.300781 L 0.0078125 235.300781 Z M 0.0078125 0.703125 " clip-rule="nonzero"/></clipPath><clipPath id="fe19a82138"><path d="M 272.992188 118 L 204.746094 235.300781 L 68.253906 235.300781 L 0.0078125 118 L 68.253906 0.703125 L 204.746094 0.703125 Z M 272.992188 118 " clip-rule="nonzero"/></clipPath><clipPath id="2e4a3f05b2"><rect x="0" width="273" y="0" height="236"/></clipPath><clipPath id="a3b8153c1f"><path d="M 13 45 L 362 45 L 362 277 L 13 277 Z M 13 45 " clip-rule="nonzero"/></clipPath><clipPath id="d6aa8c5ce3"><path d="M 361.359375 251.117188 L 345.6875 276.429688 L 13.640625 70.886719 L 29.308594 45.574219 Z M 361.359375 251.117188 " clip-rule="nonzero"/></clipPath><clipPath id="a21f629c67"><path d="M 0.46875 0.53125 L 348.410156 0.53125 L 348.410156 231.53125 L 0.46875 231.53125 Z M 0.46875 0.53125 " clip-rule="nonzero"/></clipPath><clipPath id="41779e6e79"><path d="M 348.359375 206.117188 L 332.6875 231.429688 L 0.640625 25.886719 L 16.308594 0.574219 Z M 348.359375 206.117188 " clip-rule="nonzero"/></clipPath><clipPath id="e47b70ba1d"><rect x="0" width="349" y="0" height="232"/></clipPath><clipPath id="abfe99bcf3"><path d="M 9 37 L 366 37 L 366 290 L 9 290 Z M 9 37 " clip-rule="nonzero"/></clipPath><clipPath id="9d3073db7f"><path d="M 349.246094 37.570312 L 365.953125 62.585938 L 25.746094 289.804688 L 9.039062 264.789062 Z M 349.246094 37.570312 " clip-rule="nonzero"/></clipPath><clipPath id="c8bc746aa6"><path d="M 0 0.382812 L 356.964844 0.382812 L 356.964844 252.949219 L 0 252.949219 Z M 0 0.382812 " clip-rule="nonzero"/></clipPath><clipPath id="24f3e9c12e"><path d="M 340.246094 0.570312 L 356.953125 25.585938 L 16.746094 252.804688 L 0.0390625 227.789062 Z M 340.246094 0.570312 " clip-rule="nonzero"/></clipPath><clipPath id="8adf638969"><rect x="0" width="357" y="0" height="253"/></clipPath><clipPath id="b274d48515"><path d="M 122.722656 77.417969 L 252.273438 77.417969 L 252.273438 244.40625 L 122.722656 244.40625 Z M 122.722656 77.417969 " clip-rule="nonzero"/></clipPath></defs><g clip-path="url(#82a338ce30)"><path fill="#ffffff" d="M 0.289062 0 L 374.710938 0 L 374.710938 322 L 0.289062 322 Z M 0.289062 0 " fill-opacity="1" fill-rule="nonzero"/><path fill="#000000" d="M 0.289062 0 L 374.710938 0 L 374.710938 322 L 0.289062 322 Z M 0.289062 0 " fill-opacity="1" fill-rule="nonzero"/></g><g clip-path="url(#191d58d5f2)"><g clip-path="url(#c3d9de68cc)"><g transform="matrix(1, 0, 0, 1, 0.000000000000000056, 0)"><g clip-path="url(#09a0e112ae)"><g clip-path="url(#8f1ae11400)"><g clip-path="url(#1490543ba4)"><path fill="#faa500" d="M 0.289062 0.117188 L 374.847656 0.117188 L 374.847656 321.882812 L 0.289062 321.882812 Z M 0.289062 0.117188 " fill-opacity="1" fill-rule="nonzero"/></g></g></g></g></g></g><g clip-path="url(#9939cdc192)"><g clip-path="url(#f54df2a4c1)"><g transform="matrix(1, 0, 0, 1, 51, 43)"><g clip-path="url(#2e4a3f05b2)"><g clip-path="url(#bd9bc95196)"><g clip-path="url(#fe19a82138)"><path fill="#000000" d="M 0.0078125 0.703125 L 273.09375 0.703125 L 273.09375 235.300781 L 0.0078125 235.300781 Z M 0.0078125 0.703125 " fill-opacity="1" fill-rule="nonzero"/></g></g></g></g></g></g><g clip-path="url(#a3b8153c1f)"><g clip-path="url(#d6aa8c5ce3)"><g transform="matrix(1, 0, 0, 1, 13, 45)"><g clip-path="url(#e47b70ba1d)"><g clip-path="url(#a21f629c67)"><g clip-path="url(#41779e6e79)"><path fill="#000000" d="M 348.359375 206.117188 L 332.6875 231.429688 L 0.671875 25.90625 L 16.339844 0.59375 Z M 348.359375 206.117188 " fill-opacity="1" fill-rule="nonzero"/></g></g></g></g></g></g><g clip-path="url(#abfe99bcf3)"><g clip-path="url(#9d3073db7f)"><g transform="matrix(1, 0, 0, 1, 9, 37)"><g clip-path="url(#8adf638969)"><g clip-path="url(#c8bc746aa6)"><g clip-path="url(#24f3e9c12e)"><path fill="#000000" d="M 340.246094 0.570312 L 356.953125 25.585938 L 16.703125 252.832031 L -0.00390625 227.816406 Z M 340.246094 0.570312 " fill-opacity="1" fill-rule="nonzero"/></g></g></g></g></g></g><g clip-path="url(#b274d48515)"><path fill="#faa500" d="M 238.386719 142.015625 L 238.386719 128.300781 C 238.386719 100.25 215.554688 77.417969 187.5 77.417969 C 159.449219 77.417969 136.605469 100.242188 136.605469 128.300781 L 136.605469 142.015625 C 128.925781 142.226562 122.75 148.484375 122.75 156.21875 L 122.75 230.34375 C 122.75 231.277344 122.84375 232.203125 123.023438 233.121094 C 123.207031 234.039062 123.476562 234.929688 123.835938 235.792969 C 124.191406 236.65625 124.632812 237.476562 125.152344 238.253906 C 125.671875 239.03125 126.261719 239.75 126.921875 240.410156 C 127.582031 241.074219 128.300781 241.664062 129.078125 242.183594 C 129.855469 242.703125 130.675781 243.140625 131.539062 243.5 C 132.402344 243.855469 133.292969 244.125 134.210938 244.308594 C 135.128906 244.492188 136.054688 244.582031 136.988281 244.582031 L 238.003906 244.582031 C 238.941406 244.582031 239.867188 244.492188 240.785156 244.308594 C 241.699219 244.125 242.589844 243.855469 243.453125 243.5 C 244.320312 243.140625 245.140625 242.703125 245.917969 242.183594 C 246.695312 241.664062 247.414062 241.074219 248.074219 240.414062 C 248.734375 239.75 249.324219 239.03125 249.84375 238.253906 C 250.363281 237.476562 250.804688 236.65625 251.160156 235.792969 C 251.519531 234.929688 251.789062 234.039062 251.972656 233.121094 C 252.15625 232.203125 252.246094 231.277344 252.246094 230.34375 L 252.246094 156.21875 C 252.246094 148.484375 246.070312 142.222656 238.386719 142.015625 Z M 199.144531 183.035156 C 199.082031 183.476562 198.835938 184.484375 198.8125 184.5625 C 197.941406 187.574219 195.867188 190.046875 193.167969 191.550781 L 197.738281 211.039062 C 197.804688 211.242188 197.847656 211.445312 197.863281 211.65625 C 197.882812 211.867188 197.875 212.078125 197.84375 212.289062 C 197.8125 212.496094 197.757812 212.699219 197.679688 212.894531 C 197.601562 213.09375 197.5 213.277344 197.378906 213.449219 C 197.257812 213.625 197.117188 213.78125 196.957031 213.917969 C 196.796875 214.058594 196.625 214.179688 196.4375 214.277344 C 196.25 214.378906 196.054688 214.457031 195.851562 214.507812 C 195.644531 214.5625 195.4375 214.589844 195.226562 214.597656 L 180.082031 214.597656 C 179.867188 214.589844 179.660156 214.5625 179.457031 214.507812 C 179.25 214.457031 179.054688 214.378906 178.867188 214.277344 C 178.679688 214.179688 178.507812 214.058594 178.351562 213.917969 C 178.191406 213.78125 178.050781 213.625 177.929688 213.449219 C 177.804688 213.277344 177.707031 213.09375 177.628906 212.894531 C 177.546875 212.699219 177.492188 212.496094 177.460938 212.289062 C 177.429688 212.078125 177.425781 211.867188 177.441406 211.65625 C 177.460938 211.445312 177.503906 211.242188 177.570312 211.039062 L 181.828125 191.550781 C 179.128906 190.046875 177.054688 187.574219 176.183594 184.5625 C 176.160156 184.484375 175.914062 183.476562 175.851562 183.035156 C 175.769531 182.492188 175.730469 181.945312 175.730469 181.394531 C 175.730469 180.621094 175.804688 179.855469 175.953125 179.097656 C 176.105469 178.339844 176.328125 177.605469 176.625 176.890625 C 176.917969 176.175781 177.28125 175.496094 177.710938 174.855469 C 178.140625 174.210938 178.628906 173.617188 179.175781 173.070312 C 179.722656 172.523438 180.316406 172.035156 180.957031 171.605469 C 181.601562 171.175781 182.28125 170.816406 182.992188 170.519531 C 183.707031 170.222656 184.445312 170 185.203125 169.847656 C 185.960938 169.699219 186.726562 169.621094 187.5 169.621094 C 188.269531 169.621094 189.035156 169.699219 189.792969 169.847656 C 190.550781 170 191.289062 170.222656 192.003906 170.519531 C 192.714844 170.816406 193.394531 171.175781 194.039062 171.605469 C 194.679688 172.035156 195.273438 172.523438 195.820312 173.070312 C 196.367188 173.617188 196.855469 174.210938 197.285156 174.855469 C 197.714844 175.496094 198.078125 176.175781 198.371094 176.890625 C 198.667969 177.605469 198.890625 178.339844 199.042969 179.097656 C 199.191406 179.855469 199.265625 180.621094 199.265625 181.394531 C 199.265625 181.945312 199.226562 182.492188 199.144531 183.035156 Z M 221.011719 141.976562 L 153.984375 141.976562 L 153.984375 128.300781 C 153.984375 109.820312 169.011719 94.785156 187.5 94.785156 C 205.988281 94.785156 221.011719 109.820312 221.011719 128.300781 Z M 221.011719 141.976562 " fill-opacity="1" fill-rule="nonzero"/></g></svg>