<svg xmlns="http://www.w3.org/2000/svg" xmlns:xlink="http://www.w3.org/1999/xlink" width="500" zoomAndPan="magnify" viewBox="0 0 375 322.499991" height="430" preserveAspectRatio="xMidYMid meet" version="1.0"><defs><clipPath id="4db99b157b"><path d="M 0.289062 0.117188 L 374.707031 0.117188 L 374.707031 321.882812 L 0.289062 321.882812 Z M 0.289062 0.117188 " clip-rule="nonzero"/></clipPath><clipPath id="4b5d4d51ce"><path d="M 374.710938 161 L 281.105469 321.882812 L 93.894531 321.882812 L 0.289062 161 L 93.894531 0.117188 L 281.105469 0.117188 Z M 374.710938 161 " clip-rule="nonzero"/></clipPath><clipPath id="ef9209f04d"><path d="M 0.289062 0.117188 L 374.707031 0.117188 L 374.707031 321.882812 L 0.289062 321.882812 Z M 0.289062 0.117188 " clip-rule="nonzero"/></clipPath><clipPath id="656e01767e"><path d="M 374.710938 161 L 281.105469 321.882812 L 93.894531 321.882812 L 0.289062 161 L 93.894531 0.117188 L 281.105469 0.117188 Z M 374.710938 161 " clip-rule="nonzero"/></clipPath><clipPath id="52fb9e84f0"><rect x="0" width="375" y="0" height="322"/></clipPath><clipPath id="45faf9ea1f"><path d="M 51.007812 43.703125 L 324 43.703125 L 324 278.300781 L 51.007812 278.300781 Z M 51.007812 43.703125 " clip-rule="nonzero"/></clipPath><clipPath id="284691ec6c"><path d="M 323.992188 161 L 255.746094 278.300781 L 119.253906 278.300781 L 51.007812 161 L 119.253906 43.703125 L 255.746094 43.703125 Z M 323.992188 161 " clip-rule="nonzero"/></clipPath><clipPath id="f4145203b0"><path d="M 0.0078125 0.703125 L 273 0.703125 L 273 235.300781 L 0.0078125 235.300781 Z M 0.0078125 0.703125 " clip-rule="nonzero"/></clipPath><clipPath id="9c976d00a3"><path d="M 272.992188 118 L 204.746094 235.300781 L 68.253906 235.300781 L 0.0078125 118 L 68.253906 0.703125 L 204.746094 0.703125 Z M 272.992188 118 " clip-rule="nonzero"/></clipPath><clipPath id="e6aa7d5f0d"><rect x="0" width="273" y="0" height="236"/></clipPath></defs><g clip-path="url(#4db99b157b)"><g clip-path="url(#4b5d4d51ce)"><g transform="matrix(1, 0, 0, 1, 0.000000000000000056, 0)"><g clip-path="url(#52fb9e84f0)"><g clip-path="url(#ef9209f04d)"><g clip-path="url(#656e01767e)"><path fill="#faa500" d="M 0.289062 0.117188 L 374.847656 0.117188 L 374.847656 321.882812 L 0.289062 321.882812 Z M 0.289062 0.117188 " fill-opacity="1" fill-rule="nonzero"/></g></g></g></g></g></g><g clip-path="url(#45faf9ea1f)"><g clip-path="url(#284691ec6c)"><g transform="matrix(1, 0, 0, 1, 51, 43)"><g clip-path="url(#e6aa7d5f0d)"><g clip-path="url(#f4145203b0)"><g clip-path="url(#9c976d00a3)"><path fill="#ffffff" d="M 0.0078125 0.703125 L 273.09375 0.703125 L 273.09375 235.300781 L 0.0078125 235.300781 Z M 0.0078125 0.703125 " fill-opacity="1" fill-rule="nonzero"/></g></g></g></g></g></g></svg>