<svg xmlns="http://www.w3.org/2000/svg" xmlns:xlink="http://www.w3.org/1999/xlink" width="500" zoomAndPan="magnify" viewBox="0 0 375 322.499991" height="430" preserveAspectRatio="xMidYMid meet" version="1.0"><defs><clipPath id="46e1c8870a"><path d="M 0.289062 0.117188 L 374.707031 0.117188 L 374.707031 321.882812 L 0.289062 321.882812 Z M 0.289062 0.117188 " clip-rule="nonzero"/></clipPath><clipPath id="ccbce4da65"><path d="M 374.710938 161 L 281.105469 321.882812 L 93.894531 321.882812 L 0.289062 161 L 93.894531 0.117188 L 281.105469 0.117188 Z M 374.710938 161 " clip-rule="nonzero"/></clipPath><clipPath id="d4aa4d52a6"><path d="M 0.289062 0.117188 L 374.707031 0.117188 L 374.707031 321.882812 L 0.289062 321.882812 Z M 0.289062 0.117188 " clip-rule="nonzero"/></clipPath><clipPath id="0bb3034ded"><path d="M 374.710938 161 L 281.105469 321.882812 L 93.894531 321.882812 L 0.289062 161 L 93.894531 0.117188 L 281.105469 0.117188 Z M 374.710938 161 " clip-rule="nonzero"/></clipPath><clipPath id="1aafc07506"><rect x="0" width="375" y="0" height="322"/></clipPath><clipPath id="985b51b7a6"><path d="M 51.007812 43.703125 L 324 43.703125 L 324 278.300781 L 51.007812 278.300781 Z M 51.007812 43.703125 " clip-rule="nonzero"/></clipPath><clipPath id="2c2ee23c7a"><path d="M 323.992188 161 L 255.746094 278.300781 L 119.253906 278.300781 L 51.007812 161 L 119.253906 43.703125 L 255.746094 43.703125 Z M 323.992188 161 " clip-rule="nonzero"/></clipPath><clipPath id="506e258b68"><path d="M 0.0078125 0.703125 L 273 0.703125 L 273 235.300781 L 0.0078125 235.300781 Z M 0.0078125 0.703125 " clip-rule="nonzero"/></clipPath><clipPath id="bd819ae08b"><path d="M 272.992188 118 L 204.746094 235.300781 L 68.253906 235.300781 L 0.0078125 118 L 68.253906 0.703125 L 204.746094 0.703125 Z M 272.992188 118 " clip-rule="nonzero"/></clipPath><clipPath id="16a986fa57"><rect x="0" width="273" y="0" height="236"/></clipPath></defs><g clip-path="url(#46e1c8870a)"><g clip-path="url(#ccbce4da65)"><g transform="matrix(1, 0, 0, 1, 0.000000000000000056, 0)"><g clip-path="url(#1aafc07506)"><g clip-path="url(#d4aa4d52a6)"><g clip-path="url(#0bb3034ded)"><path fill="#000000" d="M 0.289062 0.117188 L 374.847656 0.117188 L 374.847656 321.882812 L 0.289062 321.882812 Z M 0.289062 0.117188 " fill-opacity="1" fill-rule="nonzero"/></g></g></g></g></g></g><g clip-path="url(#985b51b7a6)"><g clip-path="url(#2c2ee23c7a)"><g transform="matrix(1, 0, 0, 1, 51, 43)"><g clip-path="url(#16a986fa57)"><g clip-path="url(#506e258b68)"><g clip-path="url(#bd819ae08b)"><path fill="#ffffff" d="M 0.0078125 0.703125 L 273.09375 0.703125 L 273.09375 235.300781 L 0.0078125 235.300781 Z M 0.0078125 0.703125 " fill-opacity="1" fill-rule="nonzero"/></g></g></g></g></g></g></svg>