<svg xmlns="http://www.w3.org/2000/svg" xmlns:xlink="http://www.w3.org/1999/xlink" width="500" zoomAndPan="magnify" viewBox="0 0 375 374.999991" height="500" preserveAspectRatio="xMidYMid meet" version="1.0"><defs><clipPath id="569b6f2ce6"><path d="M 130 323 L 234.453125 323 L 234.453125 374.832031 L 130 374.832031 Z M 130 323 " clip-rule="nonzero"/></clipPath><clipPath id="422dded006"><path d="M 232 23 L 348.46875 23 L 348.46875 140 L 232 140 Z M 232 23 " clip-rule="nonzero"/></clipPath><clipPath id="a16cf32bbb"><path d="M 272.390625 92.015625 L 276.6875 92.015625 L 276.6875 95.660156 L 272.390625 95.660156 Z M 272.390625 92.015625 " clip-rule="nonzero"/></clipPath><clipPath id="1a4a6420e3"><path d="M 276.675781 93.300781 C 274.726562 96.300781 273 95.773438 272.550781 95.175781 C 272.175781 94.5 272.550781 92.699219 273.148438 92.175781 C 273.675781 91.726562 276.074219 92.398438 276.074219 92.398438 " clip-rule="nonzero"/></clipPath><clipPath id="c2307394bf"><path d="M 0.390625 0.015625 L 4.6875 0.015625 L 4.6875 3.660156 L 0.390625 3.660156 Z M 0.390625 0.015625 " clip-rule="nonzero"/></clipPath><clipPath id="5239c4e5a1"><path d="M 4.675781 1.300781 C 2.726562 4.300781 1 3.773438 0.550781 3.175781 C 0.175781 2.5 0.550781 0.699219 1.148438 0.175781 C 1.675781 -0.273438 4.074219 0.398438 4.074219 0.398438 " clip-rule="nonzero"/></clipPath><clipPath id="0d0ce1f8e3"><rect x="0" width="5" y="0" height="4"/></clipPath></defs><g clip-path="url(#569b6f2ce6)"><path fill="#505050" d="M 182.21875 374.832031 C 210.800781 374.832031 233.976562 351.695312 234.039062 323.128906 C 234.039062 323.0625 233.984375 323.011719 233.921875 323.011719 L 130.515625 323.011719 C 130.453125 323.011719 130.398438 323.0625 130.398438 323.128906 C 130.460938 351.695312 153.636719 374.832031 182.21875 374.832031 " fill-opacity="1" fill-rule="nonzero"/></g><path fill="#505050" d="M 303.34375 256.457031 C 297.679688 249.21875 294.601562 240.292969 294.601562 231.105469 L 294.601562 155.570312 C 293.171875 155.652344 291.730469 155.703125 290.28125 155.703125 C 249.175781 155.703125 215.851562 122.382812 215.851562 81.277344 C 215.851562 67.324219 219.699219 54.277344 226.382812 43.113281 C 218.84375 39.886719 210.882812 37.453125 202.605469 35.933594 C 202.605469 35.933594 202.605469 20.792969 202.605469 20.558594 C 202.605469 9.304688 193.472656 0.175781 182.21875 0.175781 C 170.960938 0.175781 161.832031 9.304688 161.832031 20.558594 C 161.832031 20.792969 161.832031 35.933594 161.832031 35.933594 C 109.960938 45.441406 70.542969 90.5625 69.851562 145.015625 L 69.835938 145.015625 L 69.835938 231.105469 C 69.835938 240.292969 66.757812 249.21875 61.09375 256.457031 L 30.574219 295.425781 C 26.707031 301.070312 30.746094 308.734375 37.585938 308.734375 L 326.847656 308.734375 C 333.691406 308.734375 337.730469 301.070312 333.859375 295.425781 L 303.34375 256.457031 " fill-opacity="1" fill-rule="nonzero"/><g clip-path="url(#422dded006)"><path fill="#faa500" d="M 348.28125 81.277344 C 348.28125 113.3125 322.3125 139.277344 290.28125 139.277344 C 258.246094 139.277344 232.277344 113.3125 232.277344 81.277344 C 232.277344 49.246094 258.246094 23.277344 290.28125 23.277344 C 322.3125 23.277344 348.28125 49.246094 348.28125 81.277344 " fill-opacity="1" fill-rule="nonzero"/></g><path fill="#faa500" d="M 289.804688 52.894531 L 276.765625 59.871094 L 278.863281 68.152344 L 287.960938 63.242188 L 287.960938 109.664062 L 297.738281 109.664062 L 297.738281 52.894531 L 289.804688 52.894531 " fill-opacity="1" fill-rule="nonzero"/><g clip-path="url(#a16cf32bbb)"><g clip-path="url(#1a4a6420e3)"><g transform="matrix(1, 0, 0, 1, 272, 92)"><g clip-path="url(#0d0ce1f8e3)"><g clip-path="url(#c2307394bf)"><g clip-path="url(#5239c4e5a1)"><rect x="-354.5" width="540" fill="#ffa629" height="539.999987" y="-174.499998" fill-opacity="1"/></g></g></g></g></g></g></svg>