<svg xmlns="http://www.w3.org/2000/svg" xmlns:xlink="http://www.w3.org/1999/xlink" width="500" zoomAndPan="magnify" viewBox="0 0 375 374.999991" height="500" preserveAspectRatio="xMidYMid meet" version="1.0"><defs><clipPath id="c145cd6bab"><path d="M 4.21875 0 L 311 0 L 311 307 L 4.21875 307 Z M 4.21875 0 " clip-rule="nonzero"/></clipPath><clipPath id="fa1a4a19d1"><path d="M 12.777344 166.941406 L 17.035156 166.941406 L 17.035156 170.546875 L 12.777344 170.546875 Z M 12.777344 166.941406 " clip-rule="nonzero"/></clipPath><clipPath id="af8e9bdf46"><path d="M 17.023438 168.226562 C 15.148438 171.226562 13.351562 170.699219 12.976562 170.023438 C 12.601562 169.425781 12.898438 167.550781 13.5 167.101562 C 14.101562 166.648438 16.5 167.324219 16.5 167.324219 " clip-rule="nonzero"/></clipPath><clipPath id="7842b9ad00"><path d="M 0.777344 0.941406 L 5.035156 0.941406 L 5.035156 4.546875 L 0.777344 4.546875 Z M 0.777344 0.941406 " clip-rule="nonzero"/></clipPath><clipPath id="0e09fd4a41"><path d="M 5.023438 2.226562 C 3.148438 5.226562 1.351562 4.699219 0.976562 4.023438 C 0.601562 3.425781 0.898438 1.550781 1.5 1.101562 C 2.101562 0.648438 4.5 1.324219 4.5 1.324219 " clip-rule="nonzero"/></clipPath><clipPath id="9f97b48f16"><rect x="0" width="6" y="0" height="5"/></clipPath></defs><g clip-path="url(#c145cd6bab)"><path fill="#505050" d="M 157.308594 306.570312 C 154.800781 306.570312 152.296875 306.507812 149.796875 306.382812 C 147.292969 306.261719 144.796875 306.078125 142.300781 305.832031 C 139.808594 305.585938 137.324219 305.28125 134.84375 304.910156 C 132.367188 304.542969 129.898438 304.117188 127.441406 303.628906 C 124.984375 303.136719 122.539062 302.589844 120.109375 301.980469 C 117.679688 301.371094 115.265625 300.703125 112.867188 299.976562 C 110.46875 299.25 108.09375 298.464844 105.734375 297.621094 C 103.375 296.777344 101.039062 295.875 98.722656 294.914062 C 96.410156 293.957031 94.117188 292.941406 91.855469 291.871094 C 89.589844 290.800781 87.351562 289.671875 85.140625 288.492188 C 82.933594 287.3125 80.753906 286.078125 78.605469 284.789062 C 76.457031 283.5 74.339844 282.160156 72.257812 280.769531 C 70.171875 279.375 68.125 277.933594 66.113281 276.441406 C 64.101562 274.949219 62.125 273.410156 60.1875 271.820312 C 58.253906 270.230469 56.355469 268.59375 54.5 266.910156 C 52.644531 265.230469 50.828125 263.5 49.058594 261.730469 C 47.285156 259.957031 45.558594 258.144531 43.875 256.289062 C 42.195312 254.433594 40.558594 252.535156 38.96875 250.597656 C 37.378906 248.660156 35.839844 246.6875 34.34375 244.675781 C 32.851562 242.664062 31.410156 240.613281 30.019531 238.53125 C 28.625 236.449219 27.285156 234.332031 26 232.183594 C 24.710938 230.035156 23.476562 227.855469 22.296875 225.644531 C 21.113281 223.4375 19.988281 221.199219 18.917969 218.933594 C 17.847656 216.667969 16.832031 214.378906 15.871094 212.066406 C 14.914062 209.75 14.011719 207.414062 13.167969 205.054688 C 12.324219 202.695312 11.539062 200.316406 10.8125 197.917969 C 10.082031 195.523438 9.414062 193.109375 8.804688 190.679688 C 8.199219 188.246094 7.648438 185.804688 7.160156 183.347656 C 6.671875 180.890625 6.242188 178.421875 5.875 175.941406 C 5.507812 173.464844 5.203125 170.980469 4.957031 168.484375 C 4.710938 165.992188 4.527344 163.496094 4.402344 160.992188 C 4.28125 158.488281 4.21875 155.984375 4.21875 153.480469 C 4.21875 150.976562 4.28125 148.472656 4.402344 145.96875 C 4.527344 143.464844 4.710938 140.96875 4.957031 138.476562 C 5.203125 135.980469 5.507812 133.496094 5.875 131.015625 C 6.242188 128.539062 6.671875 126.070312 7.160156 123.613281 C 7.648438 121.15625 8.199219 118.714844 8.804688 116.28125 C 9.414062 113.851562 10.082031 111.4375 10.8125 109.039062 C 11.539062 106.644531 12.324219 104.265625 13.167969 101.90625 C 14.011719 99.546875 14.914062 97.210938 15.871094 94.894531 C 16.832031 92.582031 17.847656 90.292969 18.917969 88.027344 C 19.988281 85.761719 21.113281 83.523438 22.296875 81.316406 C 23.476562 79.105469 24.710938 76.925781 26 74.777344 C 27.285156 72.628906 28.625 70.511719 30.019531 68.429688 C 31.410156 66.34375 32.851562 64.296875 34.34375 62.285156 C 35.839844 60.273438 37.378906 58.296875 38.96875 56.363281 C 40.558594 54.425781 42.195312 52.527344 43.875 50.671875 C 45.558594 48.816406 47.285156 47 49.058594 45.230469 C 50.828125 43.457031 52.644531 41.730469 54.5 40.050781 C 56.355469 38.367188 58.253906 36.730469 60.1875 35.140625 C 62.125 33.550781 64.101562 32.011719 66.113281 30.519531 C 68.125 29.027344 70.171875 27.582031 72.257812 26.191406 C 74.339844 24.800781 76.457031 23.460938 78.605469 22.171875 C 80.753906 20.882812 82.933594 19.648438 85.140625 18.46875 C 87.351562 17.285156 89.589844 16.160156 91.855469 15.089844 C 94.117188 14.019531 96.410156 13.003906 98.722656 12.042969 C 101.039062 11.085938 103.375 10.183594 105.734375 9.339844 C 108.09375 8.496094 110.46875 7.710938 112.867188 6.984375 C 115.265625 6.257812 117.679688 5.589844 120.109375 4.980469 C 122.539062 4.371094 124.984375 3.820312 127.441406 3.332031 C 129.898438 2.84375 132.367188 2.417969 134.84375 2.046875 C 137.324219 1.679688 139.808594 1.375 142.300781 1.128906 C 144.796875 0.882812 147.292969 0.699219 149.796875 0.574219 C 152.296875 0.453125 154.800781 0.390625 157.308594 0.390625 C 159.8125 0.390625 162.316406 0.453125 164.820312 0.574219 C 167.320312 0.699219 169.820312 0.882812 172.3125 1.128906 C 174.804688 1.375 177.292969 1.679688 179.769531 2.046875 C 182.25 2.417969 184.714844 2.84375 187.171875 3.332031 C 189.628906 3.820312 192.074219 4.371094 194.503906 4.980469 C 196.933594 5.589844 199.347656 6.257812 201.746094 6.984375 C 204.144531 7.710938 206.523438 8.496094 208.882812 9.339844 C 211.242188 10.183594 213.578125 11.085938 215.890625 12.042969 C 218.207031 13.003906 220.496094 14.019531 222.761719 15.089844 C 225.027344 16.160156 227.261719 17.285156 229.472656 18.46875 C 231.683594 19.648438 233.863281 20.882812 236.011719 22.171875 C 238.160156 23.460938 240.277344 24.800781 242.359375 26.191406 C 244.441406 27.582031 246.488281 29.027344 248.503906 30.519531 C 250.515625 32.011719 252.488281 33.550781 254.425781 35.140625 C 256.363281 36.730469 258.257812 38.367188 260.117188 40.050781 C 261.972656 41.730469 263.785156 43.457031 265.558594 45.230469 C 267.328125 47 269.054688 48.816406 270.738281 50.671875 C 272.421875 52.527344 274.058594 54.425781 275.648438 56.363281 C 277.234375 58.296875 278.777344 60.273438 280.269531 62.285156 C 281.761719 64.296875 283.203125 66.34375 284.597656 68.429688 C 285.988281 70.511719 287.328125 72.628906 288.617188 74.777344 C 289.902344 76.925781 291.136719 79.105469 292.320312 81.316406 C 293.5 83.523438 294.625 85.761719 295.699219 88.027344 C 296.769531 90.292969 297.785156 92.582031 298.742188 94.894531 C 299.703125 97.210938 300.601562 99.546875 301.445312 101.90625 C 302.292969 104.265625 303.078125 106.644531 303.804688 109.039062 C 304.53125 111.4375 305.199219 113.851562 305.808594 116.28125 C 306.417969 118.714844 306.964844 121.15625 307.453125 123.613281 C 307.945312 126.070312 308.371094 128.539062 308.738281 131.015625 C 309.105469 133.496094 309.414062 135.980469 309.660156 138.476562 C 309.90625 140.96875 310.089844 143.464844 310.210938 145.96875 C 310.335938 148.472656 310.394531 150.976562 310.394531 153.480469 C 310.394531 155.984375 310.335938 158.488281 310.210938 160.992188 C 310.089844 163.496094 309.90625 165.992188 309.660156 168.484375 C 309.414062 170.980469 309.105469 173.464844 308.738281 175.941406 C 308.371094 178.421875 307.945312 180.890625 307.453125 183.347656 C 306.964844 185.804688 306.417969 188.246094 305.808594 190.679688 C 305.199219 193.109375 304.53125 195.523438 303.804688 197.917969 C 303.078125 200.316406 302.292969 202.695312 301.445312 205.054688 C 300.601562 207.414062 299.703125 209.75 298.742188 212.066406 C 297.785156 214.378906 296.769531 216.667969 295.699219 218.933594 C 294.625 221.199219 293.5 223.4375 292.320312 225.644531 C 291.136719 227.855469 289.902344 230.035156 288.617188 232.183594 C 287.328125 234.332031 285.988281 236.449219 284.597656 238.53125 C 283.203125 240.613281 281.761719 242.664062 280.269531 244.675781 C 278.777344 246.6875 277.234375 248.660156 275.648438 250.597656 C 274.058594 252.535156 272.421875 254.433594 270.738281 256.289062 C 269.054688 258.144531 267.328125 259.957031 265.558594 261.730469 C 263.785156 263.5 261.972656 265.230469 260.117188 266.910156 C 258.257812 268.59375 256.363281 270.230469 254.425781 271.820312 C 252.488281 273.410156 250.515625 274.949219 248.503906 276.441406 C 246.488281 277.933594 244.441406 279.375 242.359375 280.769531 C 240.277344 282.160156 238.160156 283.5 236.011719 284.789062 C 233.863281 286.078125 231.683594 287.3125 229.472656 288.492188 C 227.261719 289.671875 225.027344 290.800781 222.761719 291.871094 C 220.496094 292.941406 218.207031 293.957031 215.890625 294.914062 C 213.578125 295.875 211.242188 296.777344 208.882812 297.621094 C 206.523438 298.464844 204.144531 299.25 201.746094 299.976562 C 199.347656 300.703125 196.933594 301.371094 194.503906 301.980469 C 192.074219 302.589844 189.628906 303.136719 187.171875 303.628906 C 184.714844 304.117188 182.25 304.542969 179.769531 304.910156 C 177.292969 305.28125 174.804688 305.585938 172.3125 305.832031 C 169.820312 306.078125 167.320312 306.261719 164.820312 306.382812 C 162.316406 306.507812 159.8125 306.570312 157.308594 306.570312 Z M 157.308594 34.410156 C 155.359375 34.410156 153.410156 34.460938 151.464844 34.554688 C 149.519531 34.648438 147.574219 34.792969 145.636719 34.984375 C 143.699219 35.175781 141.765625 35.414062 139.835938 35.699219 C 137.910156 35.984375 135.988281 36.320312 134.078125 36.699219 C 132.167969 37.078125 130.265625 37.507812 128.375 37.980469 C 126.484375 38.453125 124.609375 38.972656 122.742188 39.539062 C 120.878906 40.105469 119.027344 40.714844 117.195312 41.371094 C 115.359375 42.027344 113.542969 42.730469 111.742188 43.476562 C 109.941406 44.21875 108.160156 45.011719 106.398438 45.84375 C 104.636719 46.675781 102.898438 47.550781 101.179688 48.472656 C 99.460938 49.390625 97.765625 50.347656 96.09375 51.351562 C 94.421875 52.351562 92.777344 53.394531 91.15625 54.476562 C 89.535156 55.558594 87.941406 56.683594 86.378906 57.84375 C 84.8125 59.003906 83.277344 60.203125 81.769531 61.4375 C 80.265625 62.675781 78.789062 63.949219 77.34375 65.257812 C 75.902344 66.566406 74.492188 67.90625 73.113281 69.285156 C 71.734375 70.664062 70.390625 72.074219 69.082031 73.519531 C 67.773438 74.960938 66.503906 76.4375 65.265625 77.945312 C 64.03125 79.449219 62.832031 80.984375 61.671875 82.550781 C 60.507812 84.117188 59.386719 85.707031 58.304688 87.328125 C 57.222656 88.949219 56.179688 90.59375 55.179688 92.265625 C 54.175781 93.9375 53.214844 95.632812 52.296875 97.351562 C 51.378906 99.070312 50.503906 100.808594 49.671875 102.570312 C 48.835938 104.332031 48.046875 106.113281 47.300781 107.914062 C 46.554688 109.714844 45.855469 111.53125 45.199219 113.367188 C 44.542969 115.203125 43.929688 117.050781 43.367188 118.917969 C 42.800781 120.78125 42.28125 122.660156 41.808594 124.550781 C 41.332031 126.4375 40.90625 128.339844 40.527344 130.25 C 40.144531 132.164062 39.8125 134.082031 39.527344 136.007812 C 39.242188 137.9375 39.003906 139.871094 38.8125 141.808594 C 38.621094 143.75 38.476562 145.691406 38.382812 147.636719 C 38.285156 149.585938 38.238281 151.53125 38.238281 153.480469 C 38.238281 155.429688 38.285156 157.375 38.382812 159.324219 C 38.476562 161.269531 38.621094 163.210938 38.8125 165.152344 C 39.003906 167.089844 39.242188 169.023438 39.527344 170.953125 C 39.8125 172.878906 40.144531 174.796875 40.527344 176.710938 C 40.90625 178.621094 41.332031 180.519531 41.808594 182.410156 C 42.28125 184.300781 42.800781 186.179688 43.367188 188.042969 C 43.929688 189.910156 44.542969 191.757812 45.199219 193.59375 C 45.855469 195.429688 46.554688 197.246094 47.300781 199.046875 C 48.046875 200.847656 48.835938 202.628906 49.671875 204.390625 C 50.503906 206.148438 51.378906 207.890625 52.296875 209.609375 C 53.214844 211.328125 54.175781 213.023438 55.179688 214.695312 C 56.179688 216.367188 57.222656 218.011719 58.304688 219.632812 C 59.386719 221.25 60.507812 222.84375 61.671875 224.410156 C 62.832031 225.976562 64.03125 227.511719 65.265625 229.015625 C 66.503906 230.523438 67.773438 232 69.082031 233.441406 C 70.390625 234.886719 71.734375 236.296875 73.113281 237.675781 C 74.492188 239.050781 75.902344 240.394531 77.34375 241.703125 C 78.789062 243.011719 80.265625 244.285156 81.769531 245.523438 C 83.277344 246.757812 84.8125 247.957031 86.378906 249.117188 C 87.941406 250.277344 89.535156 251.398438 91.15625 252.484375 C 92.777344 253.566406 94.421875 254.605469 96.09375 255.609375 C 97.765625 256.609375 99.460938 257.570312 101.179688 258.488281 C 102.898438 259.410156 104.636719 260.285156 106.398438 261.117188 C 108.160156 261.949219 109.941406 262.738281 111.742188 263.484375 C 113.542969 264.230469 115.359375 264.933594 117.195312 265.589844 C 119.027344 266.246094 120.878906 266.855469 122.742188 267.421875 C 124.609375 267.988281 126.484375 268.507812 128.375 268.980469 C 130.265625 269.453125 132.167969 269.882812 134.078125 270.261719 C 135.988281 270.640625 137.910156 270.972656 139.835938 271.261719 C 141.765625 271.546875 143.699219 271.785156 145.636719 271.976562 C 147.574219 272.167969 149.519531 272.308594 151.464844 272.40625 C 153.410156 272.5 155.359375 272.550781 157.308594 272.550781 C 159.257812 272.550781 161.203125 272.5 163.148438 272.40625 C 165.097656 272.308594 167.039062 272.167969 168.976562 271.976562 C 170.917969 271.785156 172.851562 271.546875 174.777344 271.261719 C 176.707031 270.972656 178.625 270.640625 180.535156 270.261719 C 182.449219 269.882812 184.347656 269.453125 186.238281 268.980469 C 188.128906 268.507812 190.007812 267.988281 191.871094 267.421875 C 193.734375 266.855469 195.585938 266.246094 197.421875 265.589844 C 199.253906 264.933594 201.074219 264.230469 202.875 263.484375 C 204.671875 262.738281 206.453125 261.949219 208.214844 261.117188 C 209.976562 260.285156 211.71875 259.410156 213.4375 258.488281 C 215.15625 257.570312 216.851562 256.609375 218.519531 255.609375 C 220.191406 254.605469 221.839844 253.566406 223.457031 252.484375 C 225.078125 251.398438 226.671875 250.277344 228.238281 249.117188 C 229.800781 247.957031 231.335938 246.757812 232.84375 245.523438 C 234.351562 244.285156 235.824219 243.011719 237.269531 241.703125 C 238.714844 240.394531 240.125 239.050781 241.503906 237.675781 C 242.878906 236.296875 244.222656 234.886719 245.53125 233.441406 C 246.839844 232 248.113281 230.523438 249.347656 229.015625 C 250.585938 227.511719 251.785156 225.976562 252.945312 224.410156 C 254.105469 222.84375 255.226562 221.25 256.308594 219.632812 C 257.390625 218.011719 258.433594 216.367188 259.4375 214.695312 C 260.4375 213.023438 261.398438 211.328125 262.316406 209.609375 C 263.234375 207.890625 264.113281 206.148438 264.945312 204.390625 C 265.777344 202.628906 266.566406 200.847656 267.3125 199.046875 C 268.058594 197.246094 268.757812 195.429688 269.417969 193.59375 C 270.074219 191.757812 270.683594 189.910156 271.25 188.042969 C 271.816406 186.179688 272.335938 184.300781 272.808594 182.410156 C 273.28125 180.519531 273.707031 178.621094 274.089844 176.710938 C 274.46875 174.796875 274.800781 172.878906 275.085938 170.953125 C 275.375 169.023438 275.613281 167.089844 275.804688 165.152344 C 275.996094 163.210938 276.136719 161.269531 276.234375 159.324219 C 276.328125 157.375 276.375 155.429688 276.375 153.480469 C 276.375 151.53125 276.328125 149.585938 276.234375 147.636719 C 276.136719 145.691406 275.996094 143.75 275.804688 141.808594 C 275.613281 139.871094 275.375 137.9375 275.085938 136.007812 C 274.800781 134.082031 274.46875 132.164062 274.089844 130.25 C 273.707031 128.339844 273.28125 126.4375 272.808594 124.550781 C 272.335938 122.660156 271.816406 120.78125 271.25 118.917969 C 270.683594 117.050781 270.074219 115.203125 269.417969 113.367188 C 268.757812 111.53125 268.058594 109.714844 267.3125 107.914062 C 266.566406 106.113281 265.777344 104.332031 264.945312 102.570312 C 264.113281 100.808594 263.234375 99.070312 262.316406 97.351562 C 261.398438 95.632812 260.4375 93.9375 259.4375 92.265625 C 258.433594 90.59375 257.390625 88.949219 256.308594 87.328125 C 255.226562 85.707031 254.105469 84.117188 252.945312 82.550781 C 251.785156 80.984375 250.585938 79.449219 249.347656 77.945312 C 248.113281 76.4375 246.839844 74.960938 245.53125 73.519531 C 244.222656 72.074219 242.878906 70.664062 241.503906 69.285156 C 240.125 67.90625 238.714844 66.566406 237.269531 65.257812 C 235.824219 63.949219 234.351562 62.675781 232.84375 61.4375 C 231.335938 60.203125 229.800781 59.003906 228.238281 57.84375 C 226.671875 56.683594 225.078125 55.558594 223.457031 54.476562 C 221.839844 53.394531 220.191406 52.351562 218.519531 51.351562 C 216.851562 50.347656 215.15625 49.390625 213.4375 48.472656 C 211.71875 47.550781 209.976562 46.675781 208.214844 45.84375 C 206.453125 45.011719 204.671875 44.21875 202.875 43.476562 C 201.074219 42.730469 199.253906 42.027344 197.421875 41.371094 C 195.585938 40.714844 193.734375 40.105469 191.871094 39.539062 C 190.007812 38.972656 188.128906 38.453125 186.238281 37.980469 C 184.347656 37.507812 182.449219 37.078125 180.535156 36.699219 C 178.625 36.320312 176.707031 35.984375 174.777344 35.699219 C 172.851562 35.414062 170.917969 35.175781 168.976562 34.984375 C 167.039062 34.792969 165.097656 34.648438 163.148438 34.554688 C 161.203125 34.460938 159.257812 34.410156 157.308594 34.410156 Z M 157.308594 34.410156 " fill-opacity="1" fill-rule="nonzero"/></g><path fill="#505050" d="M 352.324219 374.609375 C 350.074219 374.597656 347.910156 374.160156 345.832031 373.289062 C 343.753906 372.421875 341.921875 371.1875 340.332031 369.589844 L 237.425781 266.679688 C 237.03125 266.285156 236.65625 265.875 236.304688 265.441406 C 235.949219 265.011719 235.621094 264.566406 235.308594 264.101562 C 235 263.636719 234.714844 263.160156 234.453125 262.667969 C 234.191406 262.175781 233.953125 261.675781 233.738281 261.160156 C 233.527344 260.644531 233.339844 260.121094 233.179688 259.585938 C 233.015625 259.054688 232.882812 258.515625 232.773438 257.96875 C 232.664062 257.421875 232.582031 256.871094 232.53125 256.316406 C 232.476562 255.761719 232.449219 255.207031 232.449219 254.648438 C 232.449219 254.09375 232.476562 253.535156 232.53125 252.980469 C 232.585938 252.425781 232.667969 251.875 232.777344 251.332031 C 232.886719 250.785156 233.019531 250.246094 233.183594 249.710938 C 233.34375 249.179688 233.53125 248.65625 233.746094 248.140625 C 233.957031 247.625 234.195312 247.121094 234.460938 246.628906 C 234.722656 246.140625 235.007812 245.660156 235.316406 245.199219 C 235.628906 244.734375 235.957031 244.289062 236.3125 243.859375 C 236.664062 243.425781 237.039062 243.015625 237.433594 242.621094 C 237.828125 242.226562 238.238281 241.855469 238.671875 241.5 C 239.101562 241.148438 239.546875 240.816406 240.011719 240.503906 C 240.472656 240.195312 240.953125 239.910156 241.441406 239.648438 C 241.933594 239.382812 242.4375 239.144531 242.953125 238.933594 C 243.464844 238.71875 243.988281 238.53125 244.523438 238.371094 C 245.054688 238.207031 245.597656 238.074219 246.140625 237.964844 C 246.6875 237.855469 247.238281 237.773438 247.792969 237.71875 C 248.347656 237.664062 248.902344 237.636719 249.460938 237.636719 C 250.019531 237.636719 250.574219 237.664062 251.128906 237.71875 C 251.683594 237.773438 252.234375 237.851562 252.78125 237.960938 C 253.328125 238.070312 253.867188 238.207031 254.398438 238.367188 C 254.933594 238.527344 255.457031 238.714844 255.972656 238.929688 C 256.488281 239.140625 256.988281 239.378906 257.480469 239.640625 C 257.972656 239.902344 258.449219 240.1875 258.914062 240.5 C 259.378906 240.808594 259.824219 241.140625 260.253906 241.492188 C 260.6875 241.84375 261.097656 242.21875 261.492188 242.613281 L 364.402344 345.523438 C 365 346.113281 365.546875 346.746094 366.050781 347.417969 C 366.554688 348.089844 367.003906 348.796875 367.402344 349.539062 C 367.800781 350.277344 368.140625 351.042969 368.425781 351.832031 C 368.710938 352.621094 368.9375 353.429688 369.101562 354.253906 C 369.265625 355.078125 369.371094 355.90625 369.414062 356.746094 C 369.453125 357.585938 369.433594 358.421875 369.351562 359.257812 C 369.269531 360.09375 369.128906 360.921875 368.921875 361.734375 C 368.71875 362.550781 368.457031 363.34375 368.132812 364.121094 C 367.8125 364.898438 367.433594 365.644531 367 366.363281 C 366.570312 367.085938 366.085938 367.769531 365.550781 368.417969 C 365.015625 369.066406 364.4375 369.671875 363.8125 370.234375 C 363.1875 370.796875 362.527344 371.308594 361.828125 371.773438 C 361.128906 372.238281 360.398438 372.648438 359.636719 373.003906 C 358.875 373.359375 358.09375 373.660156 357.289062 373.898438 C 356.484375 374.140625 355.664062 374.320312 354.832031 374.4375 C 354 374.554688 353.164062 374.613281 352.324219 374.609375 Z M 352.324219 374.609375 " fill-opacity="1" fill-rule="nonzero"/><g clip-path="url(#fa1a4a19d1)"><g clip-path="url(#af8e9bdf46)"><g transform="matrix(1, 0, 0, 1, 12, 166)"><g clip-path="url(#9f97b48f16)"><g clip-path="url(#7842b9ad00)"><g clip-path="url(#0e09fd4a41)"><rect x="-94.5" width="540" fill="#505050" height="539.999987" y="-248.499998" fill-opacity="1"/></g></g></g></g></g></g></svg>