<svg xmlns="http://www.w3.org/2000/svg" xmlns:xlink="http://www.w3.org/1999/xlink" width="500" zoomAndPan="magnify" viewBox="0 0 375 374.999991" height="500" preserveAspectRatio="xMidYMid meet" version="1.0"><defs><clipPath id="483fd11c14"><path d="M 130 323 L 234.453125 323 L 234.453125 374.832031 L 130 374.832031 Z M 130 323 " clip-rule="nonzero"/></clipPath><clipPath id="3db482f754"><path d="M 232 23 L 348.46875 23 L 348.46875 140 L 232 140 Z M 232 23 " clip-rule="nonzero"/></clipPath><clipPath id="9be8e54ca6"><path d="M 181.199219 0 L 339 0 L 339 375 L 181.199219 375 Z M 181.199219 0 " clip-rule="nonzero"/></clipPath><clipPath id="cb526dbb0c"><path d="M 0.199219 323 L 55 323 L 55 374.832031 L 0.199219 374.832031 Z M 0.199219 323 " clip-rule="nonzero"/></clipPath><clipPath id="76428c2d49"><path d="M 0.199219 0 L 156 0 L 156 309 L 0.199219 309 Z M 0.199219 0 " clip-rule="nonzero"/></clipPath><clipPath id="8f4d724591"><rect x="0" width="158" y="0" height="375"/></clipPath></defs><g clip-path="url(#483fd11c14)"><path fill="#000000" d="M 182.21875 374.832031 C 210.800781 374.832031 233.976562 351.695312 234.039062 323.128906 C 234.039062 323.0625 233.984375 323.011719 233.921875 323.011719 L 130.515625 323.011719 C 130.453125 323.011719 130.398438 323.0625 130.398438 323.128906 C 130.460938 351.695312 153.636719 374.832031 182.21875 374.832031 " fill-opacity="1" fill-rule="nonzero"/></g><path fill="#000000" d="M 303.34375 256.457031 C 297.679688 249.21875 294.601562 240.292969 294.601562 231.105469 L 294.601562 155.570312 C 293.171875 155.652344 291.730469 155.703125 290.28125 155.703125 C 249.175781 155.703125 215.851562 122.382812 215.851562 81.277344 C 215.851562 67.324219 219.699219 54.277344 226.382812 43.113281 C 218.84375 39.886719 210.882812 37.453125 202.605469 35.933594 C 202.605469 35.933594 202.605469 20.792969 202.605469 20.558594 C 202.605469 9.304688 193.472656 0.175781 182.21875 0.175781 C 170.960938 0.175781 161.832031 9.304688 161.832031 20.558594 C 161.832031 20.792969 161.832031 35.933594 161.832031 35.933594 C 109.960938 45.441406 70.542969 90.5625 69.851562 145.015625 L 69.835938 145.015625 L 69.835938 231.105469 C 69.835938 240.292969 66.757812 249.21875 61.09375 256.457031 L 30.574219 295.425781 C 26.707031 301.070312 30.746094 308.734375 37.585938 308.734375 L 326.847656 308.734375 C 333.691406 308.734375 337.730469 301.070312 333.859375 295.425781 L 303.34375 256.457031 " fill-opacity="1" fill-rule="nonzero"/><g clip-path="url(#3db482f754)"><path fill="#ffffff" d="M 348.28125 81.277344 C 348.28125 113.3125 322.3125 139.277344 290.28125 139.277344 C 258.246094 139.277344 232.277344 113.3125 232.277344 81.277344 C 232.277344 49.246094 258.246094 23.277344 290.28125 23.277344 C 322.3125 23.277344 348.28125 49.246094 348.28125 81.277344 " fill-opacity="1" fill-rule="nonzero"/></g><path fill="#ffffff" d="M 289.804688 52.894531 L 276.765625 59.871094 L 278.863281 68.152344 L 287.960938 63.242188 L 287.960938 109.664062 L 297.738281 109.664062 L 297.738281 52.894531 L 289.804688 52.894531 " fill-opacity="1" fill-rule="nonzero"/><g clip-path="url(#9be8e54ca6)"><g transform="matrix(1, 0, 0, 1, 181, 0)"><g clip-path="url(#8f4d724591)"><g clip-path="url(#cb526dbb0c)"><path fill="#000000" d="M 2.714844 374.832031 C -25.867188 374.832031 -49.039062 351.695312 -49.105469 323.128906 C -49.105469 323.0625 -49.050781 323.011719 -48.988281 323.011719 L 54.417969 323.011719 C 54.484375 323.011719 54.535156 323.0625 54.535156 323.128906 C 54.472656 351.695312 31.296875 374.832031 2.714844 374.832031 " fill-opacity="1" fill-rule="nonzero"/></g><g clip-path="url(#76428c2d49)"><path fill="#000000" d="M -118.410156 256.457031 C -112.746094 249.21875 -109.667969 240.292969 -109.667969 231.105469 L -109.667969 155.570312 C -108.234375 155.652344 -106.796875 155.703125 -105.347656 155.703125 C -64.242188 155.703125 -30.917969 122.382812 -30.917969 81.277344 C -30.917969 67.324219 -34.765625 54.277344 -41.449219 43.113281 C -33.910156 39.886719 -25.949219 37.453125 -17.667969 35.933594 C -17.667969 35.933594 -17.667969 20.792969 -17.667969 20.558594 C -17.667969 9.304688 -8.539062 0.175781 2.714844 0.175781 C 13.972656 0.175781 23.101562 9.304688 23.101562 20.558594 C 23.101562 20.792969 23.101562 35.933594 23.101562 35.933594 C 74.972656 45.441406 114.394531 90.5625 115.082031 145.015625 L 115.097656 145.015625 L 115.097656 231.105469 C 115.097656 240.292969 118.175781 249.21875 123.839844 256.457031 L 154.363281 295.425781 C 158.226562 301.070312 154.1875 308.734375 147.347656 308.734375 L -141.914062 308.734375 C -148.757812 308.734375 -152.796875 301.070312 -148.925781 295.425781 L -118.410156 256.457031 " fill-opacity="1" fill-rule="nonzero"/></g></g></g></g></svg>