<svg xmlns="http://www.w3.org/2000/svg" xmlns:xlink="http://www.w3.org/1999/xlink" width="500" zoomAndPan="magnify" viewBox="0 0 375 322.499991" height="430" preserveAspectRatio="xMidYMid meet" version="1.0"><defs><clipPath id="de0bb6ba42"><path d="M 0.289062 0 L 374.707031 0 L 374.707031 322 L 0.289062 322 Z M 0.289062 0 " clip-rule="nonzero"/></clipPath><clipPath id="f293a138d4"><path d="M 0.289062 0.117188 L 374.707031 0.117188 L 374.707031 321.882812 L 0.289062 321.882812 Z M 0.289062 0.117188 " clip-rule="nonzero"/></clipPath><clipPath id="81f3f185a9"><path d="M 374.710938 161 L 281.105469 321.882812 L 93.894531 321.882812 L 0.289062 161 L 93.894531 0.117188 L 281.105469 0.117188 Z M 374.710938 161 " clip-rule="nonzero"/></clipPath><clipPath id="2bc658950b"><path d="M 0.289062 0.117188 L 374.707031 0.117188 L 374.707031 321.882812 L 0.289062 321.882812 Z M 0.289062 0.117188 " clip-rule="nonzero"/></clipPath><clipPath id="75a57d56eb"><path d="M 374.710938 161 L 281.105469 321.882812 L 93.894531 321.882812 L 0.289062 161 L 93.894531 0.117188 L 281.105469 0.117188 Z M 374.710938 161 " clip-rule="nonzero"/></clipPath><clipPath id="38befde954"><rect x="0" width="375" y="0" height="322"/></clipPath><clipPath id="705ae25b02"><path d="M 51.007812 43.703125 L 324 43.703125 L 324 278.300781 L 51.007812 278.300781 Z M 51.007812 43.703125 " clip-rule="nonzero"/></clipPath><clipPath id="c10608bce5"><path d="M 323.992188 161 L 255.746094 278.300781 L 119.253906 278.300781 L 51.007812 161 L 119.253906 43.703125 L 255.746094 43.703125 Z M 323.992188 161 " clip-rule="nonzero"/></clipPath><clipPath id="062606838b"><path d="M 0.0078125 0.703125 L 273 0.703125 L 273 235.300781 L 0.0078125 235.300781 Z M 0.0078125 0.703125 " clip-rule="nonzero"/></clipPath><clipPath id="efb78dd45e"><path d="M 272.992188 118 L 204.746094 235.300781 L 68.253906 235.300781 L 0.0078125 118 L 68.253906 0.703125 L 204.746094 0.703125 Z M 272.992188 118 " clip-rule="nonzero"/></clipPath><clipPath id="851266c9ff"><rect x="0" width="273" y="0" height="236"/></clipPath><clipPath id="3333c7a002"><path d="M 72.382812 45.882812 L 302.277344 45.882812 L 302.277344 275.777344 L 72.382812 275.777344 Z M 72.382812 45.882812 " clip-rule="nonzero"/></clipPath><clipPath id="5c9877cb6e"><path d="M 46.210938 43.703125 L 142.8125 43.703125 L 142.8125 73.472656 L 46.210938 73.472656 Z M 46.210938 43.703125 " clip-rule="nonzero"/></clipPath><clipPath id="04131843a7"><path d="M 0.210938 0.703125 L 96.8125 0.703125 L 96.8125 30.472656 L 0.210938 30.472656 Z M 0.210938 0.703125 " clip-rule="nonzero"/></clipPath><clipPath id="715b5fad95"><rect x="0" width="97" y="0" height="31"/></clipPath><clipPath id="e94120b131"><path d="M 15 138 L 91 138 L 91 237 L 15 237 Z M 15 138 " clip-rule="nonzero"/></clipPath><clipPath id="2ee46f5cb8"><path d="M 64.511719 138.125 L 90.085938 153.363281 L 40.632812 236.347656 L 15.0625 221.105469 Z M 64.511719 138.125 " clip-rule="nonzero"/></clipPath><clipPath id="8a8d131831"><path d="M 0 0.0273438 L 75.152344 0.0273438 L 75.152344 98.511719 L 0 98.511719 Z M 0 0.0273438 " clip-rule="nonzero"/></clipPath><clipPath id="401d49e532"><path d="M 49.511719 0.125 L 75.085938 15.363281 L 25.632812 98.347656 L 0.0625 83.105469 Z M 49.511719 0.125 " clip-rule="nonzero"/></clipPath><clipPath id="ed32d4466d"><rect x="0" width="76" y="0" height="99"/></clipPath><clipPath id="240ab9ee79"><path d="M 284 83 L 361 83 L 361 185 L 284 185 Z M 284 83 " clip-rule="nonzero"/></clipPath><clipPath id="de4cc86eb2"><path d="M 335.335938 83.808594 L 360.925781 99.019531 L 310.148438 184.449219 L 284.558594 169.242188 Z M 335.335938 83.808594 " clip-rule="nonzero"/></clipPath><clipPath id="866ad265c0"><path d="M 0.488281 0.628906 L 76.929688 0.628906 L 76.929688 101.515625 L 0.488281 101.515625 Z M 0.488281 0.628906 " clip-rule="nonzero"/></clipPath><clipPath id="53ec613ec7"><path d="M 51.335938 0.808594 L 76.925781 16.019531 L 26.148438 101.449219 L 0.558594 86.242188 Z M 51.335938 0.808594 " clip-rule="nonzero"/></clipPath><clipPath id="216cb41e33"><rect x="0" width="77" y="0" height="102"/></clipPath><clipPath id="9a50411cb4"><path d="M 233.382812 248.53125 L 329.980469 248.53125 L 329.980469 278.300781 L 233.382812 278.300781 Z M 233.382812 248.53125 " clip-rule="nonzero"/></clipPath><clipPath id="469ae7b77b"><path d="M 0.382812 0.53125 L 96.980469 0.53125 L 96.980469 30.300781 L 0.382812 30.300781 Z M 0.382812 0.53125 " clip-rule="nonzero"/></clipPath><clipPath id="52f012401f"><rect x="0" width="97" y="0" height="31"/></clipPath><clipPath id="d12159a7cc"><path d="M 192 0 L 267 0 L 267 77 L 192 77 Z M 192 0 " clip-rule="nonzero"/></clipPath><clipPath id="f321a52f0b"><path d="M 192.234375 -7.382812 L 218.070312 -22.175781 L 266.0625 61.660156 L 240.230469 76.449219 Z M 192.234375 -7.382812 " clip-rule="nonzero"/></clipPath><clipPath id="08456cca68"><path d="M 0.234375 0 L 74.277344 0 L 74.277344 76.679688 L 0.234375 76.679688 Z M 0.234375 0 " clip-rule="nonzero"/></clipPath><clipPath id="20e36b0ad3"><path d="M 0.234375 -7.382812 L 26.070312 -22.175781 L 74.0625 61.660156 L 48.230469 76.449219 Z M 0.234375 -7.382812 " clip-rule="nonzero"/></clipPath><clipPath id="25cfec2cbb"><rect x="0" width="75" y="0" height="77"/></clipPath><clipPath id="b55c536685"><path d="M 109 246 L 184 246 L 184 322 L 109 322 Z M 109 246 " clip-rule="nonzero"/></clipPath><clipPath id="7dbbe3ef6c"><path d="M 109.21875 261.050781 L 135.054688 246.261719 L 183.046875 330.097656 L 157.210938 344.886719 Z M 109.21875 261.050781 " clip-rule="nonzero"/></clipPath><clipPath id="eeb44dbaad"><path d="M 0.0820312 0.0976562 L 74.125 0.0976562 L 74.125 76 L 0.0820312 76 Z M 0.0820312 0.0976562 " clip-rule="nonzero"/></clipPath><clipPath id="b0a0e2dc43"><path d="M 0.21875 15.050781 L 26.054688 0.261719 L 74.046875 84.097656 L 48.210938 98.886719 Z M 0.21875 15.050781 " clip-rule="nonzero"/></clipPath><clipPath id="aecb19ac3a"><rect x="0" width="75" y="0" height="76"/></clipPath></defs><g clip-path="url(#de0bb6ba42)"><path fill="#ffffff" d="M 0.289062 0 L 374.710938 0 L 374.710938 322 L 0.289062 322 Z M 0.289062 0 " fill-opacity="1" fill-rule="nonzero"/><path fill="#000000" d="M 0.289062 0 L 374.710938 0 L 374.710938 322 L 0.289062 322 Z M 0.289062 0 " fill-opacity="1" fill-rule="nonzero"/></g><g clip-path="url(#f293a138d4)"><g clip-path="url(#81f3f185a9)"><g transform="matrix(1, 0, 0, 1, 0.000000000000000056, 0)"><g clip-path="url(#38befde954)"><g clip-path="url(#2bc658950b)"><g clip-path="url(#75a57d56eb)"><path fill="#faa500" d="M 0.289062 0.117188 L 374.847656 0.117188 L 374.847656 321.882812 L 0.289062 321.882812 Z M 0.289062 0.117188 " fill-opacity="1" fill-rule="nonzero"/></g></g></g></g></g></g><g clip-path="url(#705ae25b02)"><g clip-path="url(#c10608bce5)"><g transform="matrix(1, 0, 0, 1, 51, 43)"><g clip-path="url(#851266c9ff)"><g clip-path="url(#062606838b)"><g clip-path="url(#efb78dd45e)"><path fill="#000000" d="M 0.0078125 0.703125 L 273.09375 0.703125 L 273.09375 235.300781 L 0.0078125 235.300781 Z M 0.0078125 0.703125 " fill-opacity="1" fill-rule="nonzero"/></g></g></g></g></g></g><g clip-path="url(#3333c7a002)"><path fill="#000000" d="M 187.5 45.882812 C 250.8125 45.882812 302.617188 97.683594 302.617188 161 C 302.617188 224.316406 250.8125 276.117188 187.5 276.117188 C 124.183594 276.117188 72.382812 224.316406 72.382812 161 C 72.382812 97.683594 124.183594 45.882812 187.5 45.882812 " fill-opacity="1" fill-rule="evenodd"/></g><path fill="#faa500" d="M 165.171875 174.097656 L 226.90625 112.359375 C 233.445312 105.820312 244.058594 105.820312 250.601562 112.359375 C 257.144531 118.902344 257.144531 129.511719 250.601562 136.054688 L 177.09375 209.5625 C 177.066406 209.589844 177.042969 209.613281 177.019531 209.636719 C 170.476562 216.179688 159.863281 216.179688 153.320312 209.636719 L 148.617188 204.9375 L 148.621094 204.933594 L 124.398438 180.714844 C 117.855469 174.171875 117.855469 163.5625 124.398438 157.019531 C 130.9375 150.476562 141.550781 150.476562 148.09375 157.019531 L 165.171875 174.097656 " fill-opacity="1" fill-rule="evenodd"/><g clip-path="url(#5c9877cb6e)"><g transform="matrix(1, 0, 0, 1, 46, 43)"><g clip-path="url(#715b5fad95)"><g clip-path="url(#04131843a7)"><path fill="#000000" d="M 96.8125 0.703125 L 96.8125 30.472656 L 0.179688 30.472656 L 0.179688 0.703125 Z M 96.8125 0.703125 " fill-opacity="1" fill-rule="nonzero"/></g></g></g></g><g clip-path="url(#e94120b131)"><g clip-path="url(#2ee46f5cb8)"><g transform="matrix(1, 0, 0, 1, 15, 138)"><g clip-path="url(#ed32d4466d)"><g clip-path="url(#8a8d131831)"><g clip-path="url(#401d49e532)"><path fill="#000000" d="M 49.511719 0.125 L 75.085938 15.363281 L 25.617188 98.375 L 0.046875 83.132812 Z M 49.511719 0.125 " fill-opacity="1" fill-rule="nonzero"/></g></g></g></g></g></g><g clip-path="url(#240ab9ee79)"><g clip-path="url(#de4cc86eb2)"><g transform="matrix(1, 0, 0, 1, 284, 83)"><g clip-path="url(#216cb41e33)"><g clip-path="url(#866ad265c0)"><g clip-path="url(#53ec613ec7)"><path fill="#000000" d="M 51.335938 0.808594 L 76.925781 16.019531 L 26.125 101.484375 L 0.535156 86.277344 Z M 51.335938 0.808594 " fill-opacity="1" fill-rule="nonzero"/></g></g></g></g></g></g><g clip-path="url(#9a50411cb4)"><g transform="matrix(1, 0, 0, 1, 233, 248)"><g clip-path="url(#52f012401f)"><g clip-path="url(#469ae7b77b)"><path fill="#000000" d="M 96.980469 0.53125 L 96.980469 30.300781 L 0.347656 30.300781 L 0.347656 0.53125 Z M 96.980469 0.53125 " fill-opacity="1" fill-rule="nonzero"/></g></g></g></g><g clip-path="url(#d12159a7cc)"><g clip-path="url(#f321a52f0b)"><g transform="matrix(1, 0, 0, 1, 192, 0)"><g clip-path="url(#25cfec2cbb)"><g clip-path="url(#08456cca68)"><g clip-path="url(#20e36b0ad3)"><path fill="#000000" d="M 0.234375 -7.382812 L 26.070312 -22.175781 L 74.078125 61.6875 L 48.246094 76.476562 Z M 0.234375 -7.382812 " fill-opacity="1" fill-rule="nonzero"/></g></g></g></g></g></g><g clip-path="url(#b55c536685)"><g clip-path="url(#7dbbe3ef6c)"><g transform="matrix(1, 0, 0, 1, 109, 246)"><g clip-path="url(#aecb19ac3a)"><g clip-path="url(#eeb44dbaad)"><g clip-path="url(#b0a0e2dc43)"><path fill="#000000" d="M 0.21875 15.050781 L 26.054688 0.261719 L 74.0625 84.125 L 48.226562 98.914062 Z M 0.21875 15.050781 " fill-opacity="1" fill-rule="nonzero"/></g></g></g></g></g></g></svg>